<svg width="37" height="37" viewBox="0 0 37 37" fill="none" xmlns="http://www.w3.org/2000/svg">
<g clip-path="url(#clip0)">
<path d="M35.1717 33.3701L32.1237 36.159H4.91566L1.8677 33.3701" fill="#57BAE5"/>
<path d="M35.1717 33.3701L32.1237 36.159H29.9403L32.9883 33.3701H35.1717Z" fill="#34A9D1"/>
<path d="M17.5927 5.8986C18.8859 5.53448 20.4282 5.88063 20.4282 7.16407V9.75368H16.6113V7.16407C16.6112 6.46244 17.0512 6.09268 17.5927 5.8986Z" fill="#57BAE5"/>
<path d="M17.428 5.96533C18.4393 5.51058 20.4281 5.72368 20.4281 7.16393V9.75353H18.2447V7.16393C18.2448 6.53517 17.8912 6.17334 17.428 5.96533Z" fill="#34A9D1"/>
<path d="M7.92428 16.1758V13.3148C7.92428 12.5743 8.52846 11.9741 9.27387 11.9741H27.7658C28.5111 11.9741 29.1152 12.5743 29.1152 13.3148V21.2701H7.92414V18.0608" fill="#7C5437"/>
<path d="M9.27384 11.9741H18.0084C18.1981 15.2602 17.5113 18.4403 16.072 21.2701H7.92426C7.92426 20.5118 7.92426 14.1986 7.92426 13.3148C7.92426 12.5744 8.52844 11.9741 9.27384 11.9741Z" fill="#8E5E3D"/>
<path d="M12.4769 11.9744V10.4408C12.4769 10.0185 12.8214 9.67627 13.2465 9.67627H23.7929C24.218 9.67627 24.5626 10.0185 24.5626 10.4408V11.9744H12.4769Z" fill="#FF4B4E"/>
<path d="M13.2466 9.67627H17.7285C17.8689 10.4272 17.9632 11.1942 18.0084 11.9744H12.4768V10.4408C12.4769 10.0186 12.8214 9.67627 13.2466 9.67627Z" fill="#FC5162"/>
<path d="M25.5823 11.9741H27.7658C28.5111 11.9741 29.1153 12.5743 29.1153 13.3148V21.2701H26.9319V13.3148C26.9319 12.5744 26.3277 11.9741 25.5823 11.9741Z" fill="#603D26"/>
<path d="M21.6095 9.67627H23.793C24.218 9.67627 24.5626 10.0185 24.5626 10.4408V11.9744H22.3792V10.4408C22.3792 10.0186 22.0346 9.67627 21.6095 9.67627Z" fill="#EF2235"/>
<path d="M18.5971 0.501535C19.4027 0.847406 19.9231 1.63389 19.9231 2.50508C19.9231 3.84181 18.7532 4.5245 18.5197 4.5245C18.2999 4.5245 17.1162 3.85735 17.1162 2.50508C17.1164 1.14375 18.3584 0.399063 18.5971 0.501535Z" fill="#F99830"/>
<path d="M9.27387 11.9741H27.7657C28.3772 11.9741 28.8936 12.378 29.0594 12.9318C29.1307 13.1708 29.1153 13.229 29.1153 14.3424L26.6041 15.9632C25.7179 16.5352 24.942 16.191 24.6682 16.0313L22.9502 14.9223C22.9501 14.9223 22.9501 14.9223 22.9501 14.9223C22.1649 14.4154 21.4719 14.7304 21.2376 14.8678C18.2184 16.8165 18.8352 16.8256 15.802 14.8678C15.5677 14.7304 14.8747 14.4154 14.0895 14.9223C14.0895 14.9223 14.0894 14.9223 14.0894 14.9223L12.3714 16.0313C12.0977 16.191 11.3217 16.5351 10.4355 15.9632L7.92429 14.3424V13.3148C7.92429 12.5742 8.52861 11.9741 9.27387 11.9741Z" fill="#FFC373"/>
<path d="M9.27388 11.9741H18.0085C18.0891 13.3717 18.0137 14.7501 17.7762 16.133C17.6892 16.0892 17.8515 16.1909 15.802 14.8679C15.5677 14.7305 14.8747 14.4156 14.0895 14.9224C14.0895 14.9225 14.0894 14.9225 14.0894 14.9225L12.3714 16.0314C12.0977 16.1912 11.3217 16.5353 10.4355 15.9634L7.9243 14.3426C7.9243 13.2136 7.92199 13.2707 7.93131 13.1778C8.00052 12.501 8.57546 11.9741 9.27388 11.9741Z" fill="#FCCA8D"/>
<path d="M26.9319 13.3146C26.9319 12.5741 26.3277 11.9739 25.5823 11.9739C27.7845 11.9739 27.9153 11.9313 28.2668 12.0704C28.7975 12.2831 29.1153 12.7857 29.1153 13.3146V14.3422L26.9319 15.7515V13.3146Z" fill="#F7AC52"/>
<path d="M4.6226 26.1948V23.0286C4.6226 22.0573 5.41506 21.27 6.39271 21.27H30.6468C31.6244 21.27 32.4167 22.0573 32.4167 23.0286V31.1235H4.6226V28.0539" fill="#7C5437"/>
<path d="M6.3928 21.27H16.0721C13.7697 25.7973 9.62827 29.2439 4.62262 30.6403C4.62262 30.3132 4.62262 23.2999 4.62262 23.0286C4.62262 22.0573 5.41515 21.27 6.3928 21.27Z" fill="#8E5E3D"/>
<path d="M1.7542 31.1235H35.2852C35.9313 31.1235 36.4549 31.6438 36.4549 32.2856C36.4549 32.9273 35.9313 33.4476 35.2852 33.4476C33.8221 33.4476 2.94236 33.4476 1.75413 33.4476C1.10808 33.4476 0.584335 32.9274 0.584335 32.2856C0.584404 31.6438 1.10815 31.1235 1.7542 31.1235Z" fill="#BAD8E8"/>
<path d="M1.75417 32.2856C2.41557 32.2856 34.3857 32.2856 35.2853 32.2856C35.7179 32.2856 36.0949 32.0516 36.2971 31.7047C36.7485 32.4785 36.184 33.4476 35.2853 33.4476C33.8221 33.4476 2.9424 33.4476 1.75417 33.4476C1.10812 33.4476 0.584373 32.9274 0.584373 32.2856C0.584373 32.0737 0.642437 31.8756 0.742222 31.7046C0.944527 32.0516 1.32137 32.2856 1.75417 32.2856Z" fill="#91C5DB"/>
<path d="M28.4633 21.27H30.6468C31.6244 21.27 32.4167 22.0573 32.4167 23.0286V31.1235H30.2333V23.0286C30.2333 22.0573 29.4409 21.27 28.4633 21.27Z" fill="#603D26"/>
<path d="M32.4167 23.0285V24.1034L30.1463 25.569C29.2601 26.1411 28.4842 25.7968 28.2104 25.6371L26.4924 24.5282C26.4923 24.5282 26.4923 24.5282 26.4923 24.5281C25.707 24.0212 25.0139 24.3363 24.7798 24.4736C21.775 26.4128 22.3297 26.4141 19.408 24.5282C19.408 24.5282 19.0256 24.2504 18.5156 24.2504C18.2523 24.2525 17.9496 24.3229 17.6316 24.5281C17.6316 24.5282 17.6315 24.5282 17.6315 24.5282C15.9186 25.6338 15.6332 25.8986 15.0463 25.9169C14.7241 25.932 14.4029 25.841 14.1494 25.6934C13.0894 25.0091 13.5524 25.308 12.2598 24.4737C12.0256 24.3363 11.3325 24.0213 10.5473 24.5282C10.5473 24.5282 10.5473 24.5282 10.5472 24.5282L8.82921 25.6372C8.55545 25.7969 7.77954 26.1411 6.89312 25.5691L4.62267 24.1035V23.0286C4.62267 22.0573 5.41513 21.27 6.39279 21.27C7.18525 21.27 30.3792 21.27 30.6468 21.27C31.6244 21.2699 32.4167 22.0572 32.4167 23.0285Z" fill="#FFC373"/>
<path d="M6.3928 21.27C6.47407 21.27 15.8797 21.27 16.0721 21.27C15.3469 22.6963 14.4389 24.0147 13.3789 25.1961C13.2574 25.1176 13.4374 25.2337 12.2598 24.4736C12.0256 24.3362 11.3325 24.0212 10.5473 24.5281C10.5473 24.5282 10.5473 24.5282 10.5472 24.5282L8.82922 25.6371C8.55546 25.7968 7.77955 26.141 6.89313 25.569L4.62269 24.1034V23.0285C4.62262 22.0573 5.41515 21.27 6.3928 21.27Z" fill="#FCCA8D"/>
<path d="M30.2333 23.0286C30.2333 22.0573 29.441 21.27 28.4633 21.27H30.6468C31.6244 21.27 32.4167 22.0573 32.4167 23.0286V24.1035L30.2333 25.5128V23.0286Z" fill="#F7AC52"/>
<path d="M24.2716 19.7862C23.8522 19.7862 23.5122 19.4484 23.5122 19.0318C23.5122 18.6151 23.8522 18.2773 24.2716 18.2773C24.6911 18.2773 25.0311 18.6151 25.0311 19.0318C25.0311 19.4484 24.6911 19.7862 24.2716 19.7862Z" fill="#00CDB3"/>
<path d="M16.6294 18.547C16.21 18.547 15.87 18.2092 15.87 17.7925C15.87 17.3759 16.21 17.0381 16.6294 17.0381C17.0488 17.0381 17.3889 17.3759 17.3889 17.7925C17.3889 18.2092 17.0488 18.547 16.6294 18.547Z" fill="#57BAE5"/>
<path d="M11.4882 19.318C11.0688 19.318 10.7288 18.9802 10.7288 18.5635C10.7288 18.1469 11.0688 17.8091 11.4882 17.8091C11.9076 17.8091 12.2476 18.1469 12.2476 18.5635C12.2476 18.9802 11.9076 19.318 11.4882 19.318Z" fill="#00CDB3"/>
<path d="M15.5364 20.0469C15.6738 19.7564 15.5479 19.4103 15.2556 19.274L14.2005 18.7818C13.908 18.6455 13.5597 18.7702 13.4224 19.0608C13.2852 19.3512 13.4111 19.6972 13.7033 19.8337L14.7585 20.3259C15.0523 20.4626 15.3996 20.3364 15.5364 20.0469Z" fill="#FF4B4E"/>
<path d="M21.0037 19.2997L21.9983 18.6961C22.2739 18.5289 22.3609 18.1713 22.1926 17.8974C22.0242 17.6236 21.6643 17.5371 21.3887 17.7044L20.3939 18.308C20.1182 18.4752 20.0313 18.8329 20.1997 19.1066C20.3679 19.3803 20.7274 19.467 21.0037 19.2997Z" fill="#FFCA54"/>
<path d="M13.8824 29.6173C13.4629 29.6173 13.1229 29.2795 13.1229 28.8628C13.1229 28.4462 13.4629 28.1084 13.8824 28.1084C14.3018 28.1084 14.6418 28.4462 14.6418 28.8628C14.6418 29.2795 14.3018 29.6173 13.8824 29.6173Z" fill="#57BAE5"/>
<path d="M21.5246 28.378C21.1052 28.378 20.7652 28.0402 20.7652 27.6236C20.7652 27.2069 21.1052 26.8691 21.5246 26.8691C21.944 26.8691 22.2841 27.2069 22.2841 27.6236C22.2841 28.0402 21.944 28.378 21.5246 28.378Z" fill="#00CDB3"/>
<path d="M26.6658 29.148C26.2464 29.148 25.9064 28.8103 25.9064 28.3936C25.9064 27.9769 26.2464 27.6392 26.6658 27.6392C27.0852 27.6392 27.4252 27.9769 27.4252 28.3936C27.4252 28.8103 27.0852 29.148 26.6658 29.148Z" fill="#FF4B4E"/>
<path d="M23.3956 30.1568L24.4506 29.6646C24.743 29.5283 24.8687 29.1822 24.7315 28.8917C24.5943 28.6013 24.2459 28.4766 23.9535 28.6128L22.8983 29.105C22.606 29.2413 22.4803 29.5873 22.6175 29.8778C22.7549 30.1683 23.103 30.2931 23.3956 30.1568Z" fill="#FFCA54"/>
<path d="M9.89135 29.6646L10.9466 29.1725C11.2389 29.036 11.3646 28.6901 11.2274 28.3996C11.0902 28.1092 10.7418 27.9844 10.4495 28.1205L9.39425 28.6127C9.10205 28.7491 8.97618 29.095 9.11341 29.3856C9.25008 29.6748 9.59733 29.8014 9.89135 29.6646Z" fill="#57BAE5"/>
<path d="M17.9543 28.9372C18.1226 28.6634 18.0357 28.3059 17.7601 28.1386L16.7653 27.5349C16.4897 27.3677 16.1297 27.4541 15.9613 27.7279C15.793 28.0017 15.8801 28.3592 16.1557 28.5266L17.1504 29.1302C17.4261 29.2976 17.786 29.2111 17.9543 28.9372Z" fill="#FFCA54"/>
</g>
<defs>
<clipPath id="clip0">
<rect width="35.903" height="35.6668" fill="white" transform="matrix(-1 0 0 1 36.4717 0.492188)"/>
</clipPath>
</defs>
</svg>
