<svg width="16" height="12" viewBox="0 0 16 12" fill="none" xmlns="http://www.w3.org/2000/svg">
<path fill-rule="evenodd" clip-rule="evenodd" d="M6.39305 1.13599C6.60616 0.7808 6.49099 0.320105 6.1358 0.106994C5.78062 -0.106117 5.31992 0.00905634 5.10681 0.364242L3.0753 3.75009H1.43487C0.955063 3.75009 0.598649 4.19441 0.702734 4.66279L1.90556 10.0755C2.05807 10.7618 2.66679 11.2501 3.36984 11.2501H12.63C13.333 11.2501 13.9418 10.7618 14.0943 10.0755L15.2971 4.66279C15.4012 4.1944 15.0448 3.75009 14.565 3.75009H12.9245L10.893 0.364242C10.6799 0.00905634 10.2192 -0.106117 9.86402 0.106994C9.50883 0.320105 9.39366 0.7808 9.60677 1.13599L11.1752 3.75009H4.82459L6.39305 1.13599ZM4.06779 5.27257C4.46963 5.17211 4.87683 5.41643 4.9773 5.81828L5.7273 8.81828C5.82776 9.22012 5.58344 9.62732 5.18159 9.72779C4.77974 9.82825 4.37254 9.58393 4.27208 9.18208L3.52208 6.18208C3.42162 5.78023 3.66594 5.37303 4.06779 5.27257ZM11.9316 5.27257C12.3334 5.37303 12.5778 5.78023 12.4773 6.18208L11.7273 9.18208C11.6268 9.58393 11.2196 9.82825 10.8178 9.72779C10.4159 9.62732 10.1716 9.22012 10.2721 8.81828L11.0221 5.81828C11.1225 5.41643 11.5297 5.17211 11.9316 5.27257ZM7.99969 5.25018C8.41391 5.25018 8.74969 5.58597 8.74969 6.00018V9.00018C8.74969 9.4144 8.41391 9.75018 7.99969 9.75018C7.58548 9.75018 7.24969 9.4144 7.24969 9.00018V6.00018C7.24969 5.58597 7.58548 5.25018 7.99969 5.25018Z" fill="white"/>
</svg>
