<svg width="41" height="41" viewBox="0 0 41 41" fill="none" xmlns="http://www.w3.org/2000/svg">
<g clip-path="url(#clip0)">
<path d="M30.4022 23.2074H30.3669V17.4658H33.7629V19.8688C33.763 21.7126 32.2583 23.2074 30.4022 23.2074Z" fill="#FFDAC5"/>
<path d="M11.3871 23.2074H11.4224V17.4658H8.02637V19.8688C8.02637 21.7126 9.53105 23.2074 11.3871 23.2074Z" fill="#FFDAC5"/>
<path d="M32.3773 20.2514H30.7747C30.437 20.2514 30.1633 19.9795 30.1633 19.644C30.1633 19.3085 30.437 19.0366 30.7747 19.0366H32.3773C32.715 19.0366 32.9887 19.3085 32.9887 19.644C32.9887 19.9794 32.7149 20.2514 32.3773 20.2514Z" fill="#FCB997"/>
<path d="M11.0148 20.2514H9.41218C9.0745 20.2514 8.80078 19.9795 8.80078 19.644C8.80078 19.3085 9.0745 19.0366 9.41218 19.0366H11.0148C11.3525 19.0366 11.6262 19.3085 11.6262 19.644C11.6262 19.9794 11.3525 20.2514 11.0148 20.2514Z" fill="#FCB997"/>
<path d="M31.5708 40.1406V36.427C31.5708 33.1627 30.0864 30.2425 27.7509 28.2974H14.0389C11.7034 30.2425 10.219 33.1627 10.219 36.427V40.1406" fill="#FF525D"/>
<path d="M17.9444 28.2974H14.0389C11.7034 30.2425 10.219 33.1627 10.219 36.427V40.1406H14.1245V36.427C14.1245 33.1626 15.609 30.2425 17.9444 28.2974Z" fill="#EF4152"/>
<path d="M31.3926 34.4903C31.3926 34.4903 29.384 32.5201 26.7754 32.0341C26.7754 32.0341 26.8244 35.0823 25.8787 36.812C25.8787 36.812 23.4715 36.4436 20.8948 33.5727C18.3188 36.4435 15.9108 36.812 15.9108 36.812C15.0908 35.3114 15.0182 32.8188 15.0133 32.1848C15.0133 32.0876 15.0141 32.0341 15.0141 32.0341C12.4055 32.52 10.3978 34.4903 10.3978 34.4903H10.397C10.8551 32.0196 12.1765 29.8485 14.0392 28.2969H27.7512C29.6139 29.8485 30.9353 32.0196 31.3934 34.4903H31.3926Z" fill="#4BC999"/>
<path d="M17.9447 28.2969C16.6885 29.3431 15.6785 30.672 15.0133 32.1848C15.0133 32.0876 15.0141 32.0341 15.0141 32.0341C12.4055 32.52 10.3978 34.4903 10.3978 34.4903H10.397C10.8551 32.0196 12.1765 29.8485 14.0392 28.2969H17.9447Z" fill="#41B787"/>
<path d="M29.1763 9.25591H12.6135C13.93 6.0733 16.7074 2.9191 20.8949 0.510742C25.0825 2.9191 27.8598 6.0733 29.1763 9.25591Z" fill="#4BC999"/>
<path d="M15.4316 11.9682L23.6586 11.2095L30.7291 16.5214C30.7593 16.8324 30.7748 17.1474 30.7748 17.4656V22.0014C30.7748 27.4214 26.3517 30.3286 20.8948 30.3286C15.438 30.3286 11.0149 27.4214 11.0149 22.0014V17.4656C11.0149 17.1474 11.0304 16.8323 11.0606 16.5214L15.4316 11.9682Z" fill="#FFDAC5"/>
<path d="M14.2808 22.0014V17.4656C14.2808 17.1474 14.2963 16.8323 14.3265 16.5214L18.6975 11.9682L23.9842 11.4807L23.6232 11.2095L15.3962 11.9682L11.0251 16.5214C10.995 16.8324 10.9795 17.1474 10.9795 17.4656V22.0014C10.9795 27.4214 15.4026 30.3286 20.8594 30.3286C21.422 30.3286 21.9733 30.2972 22.5101 30.2359C17.8392 29.7021 14.2808 26.8627 14.2808 22.0014Z" fill="#EFC1AB"/>
<path d="M16.3113 22.6283C15.9737 22.6283 15.7 22.3564 15.7 22.0209V20.7583C15.7 20.4228 15.9737 20.1509 16.3113 20.1509C16.649 20.1509 16.9227 20.4228 16.9227 20.7583V22.0209C16.9227 22.3564 16.649 22.6283 16.3113 22.6283Z" fill="#313344"/>
<path d="M25.7601 22.6283C25.4224 22.6283 25.1487 22.3564 25.1487 22.0209V20.7583C25.1487 20.4228 25.4224 20.1509 25.7601 20.1509C26.0978 20.1509 26.3715 20.4228 26.3715 20.7583V22.0209C26.3715 22.3564 26.0978 22.6283 25.7601 22.6283Z" fill="#313344"/>
<path d="M19.1757 8.16183C19.3289 8.58375 19.3232 8.94576 19.1855 9.25591H12.6135C13.93 6.0733 16.7073 2.9191 20.8948 0.510742C20.8948 0.510742 17.4564 3.42848 19.1757 8.16183Z" fill="#41B787"/>
<path d="M21.0359 26.9959C20.2199 26.9959 19.4042 26.6875 18.7831 26.0704C18.5443 25.8333 18.5443 25.4487 18.7831 25.2116C19.0218 24.9744 19.4089 24.9744 19.6476 25.2116C20.4131 25.972 21.6586 25.972 22.4241 25.2116C22.6628 24.9744 23.05 24.9744 23.2886 25.2116C23.5273 25.4487 23.5273 25.8334 23.2886 26.0704C22.6677 26.6873 21.8517 26.9959 21.0359 26.9959Z" fill="#CE5B6C"/>
<path d="M31.5699 11.5294V15.8625C31.5699 16.5208 30.9329 16.9987 30.2977 16.8109C25.6787 15.4452 20.833 15.1077 16.1019 15.798C14.5488 16.025 13.0087 16.3623 11.4932 16.8106C10.8579 16.9985 10.2205 16.521 10.2205 15.8625V11.5287C10.2205 10.531 10.8832 9.64916 11.8492 9.37539C13.2587 8.97615 14.6876 8.67166 16.128 8.4619C20.7289 7.79377 25.4381 8.09826 29.9412 9.37539C30.9072 9.64901 31.5699 10.5309 31.5699 11.5294Z" fill="#FF525D"/>
<path d="M16.1017 15.7976C14.5486 16.0245 13.0085 16.3618 11.4929 16.8101C10.8576 16.9981 10.2202 16.5206 10.2202 15.862V11.5282C10.2202 10.5305 10.883 9.64869 11.8489 9.37492C13.2584 8.97568 14.6874 8.67118 16.1278 8.46143L16.131 8.4622C16.131 8.46235 14.0817 11.9745 16.1017 15.7976Z" fill="#EF4152"/>
<path d="M31.5698 13.1287V14.8155C30.6495 13.9328 29.6338 12.9659 29.0566 12.4436C28.2047 12.8347 27.3586 13.2502 26.5369 13.6826C26.3217 13.7952 26.0592 13.7709 25.8693 13.6195C25.1421 13.0421 24.3889 12.4744 23.6242 11.931C22.8115 12.4016 22.0085 12.8955 21.2317 13.4024C21.0279 13.5353 20.7638 13.5353 20.56 13.4024C19.7823 12.8947 18.9786 12.4007 18.1666 11.9302C17.402 12.4752 16.6488 13.0421 15.9225 13.6195C15.7619 13.7474 15.55 13.7846 15.3591 13.7256C15.3233 13.7151 15.2882 13.7005 15.254 13.6826C14.4323 13.2502 13.5853 12.8339 12.7318 12.4428C12.1057 13.0032 11.0672 13.9879 10.2202 14.7978V13.1142C11.0167 12.3602 11.809 11.6201 12.228 11.2646C12.4081 11.1116 12.6609 11.0759 12.8769 11.1731C13.6635 11.527 14.4461 11.9012 15.2123 12.2915C15.2988 12.3352 15.3852 12.3797 15.4716 12.4243C16.2207 11.8372 16.996 11.2631 17.7802 10.7132C17.9742 10.5771 18.2301 10.565 18.4364 10.6824C19.2679 11.1562 20.0936 11.6549 20.8957 12.17C21.6962 11.6557 22.522 11.1561 23.3543 10.6824C23.5606 10.565 23.8165 10.5771 24.0105 10.7132C24.7947 11.2623 25.5691 11.8372 26.3191 12.4243C27.1677 11.9862 28.0383 11.5667 28.913 11.1732C29.129 11.0761 29.3825 11.1117 29.5627 11.2647C29.9272 11.5738 30.7187 12.318 31.5698 13.1287Z" fill="#4BC999"/>
<path d="M20.8953 38.5717C21.6607 38.5717 22.2811 37.9553 22.2811 37.195C22.2811 36.4347 21.6607 35.8184 20.8953 35.8184C20.13 35.8184 19.5095 36.4347 19.5095 37.195C19.5095 37.9553 20.13 38.5717 20.8953 38.5717Z" fill="#5C5E70"/>
<path d="M27.2332 25.1288C27.9761 25.1288 28.5783 24.7663 28.5783 24.3191C28.5783 23.8718 27.9761 23.5093 27.2332 23.5093C26.4904 23.5093 25.8882 23.8718 25.8882 24.3191C25.8882 24.7663 26.4904 25.1288 27.2332 25.1288Z" fill="#FCB997"/>
<path d="M14.5572 25.1288C15.3 25.1288 15.9022 24.7663 15.9022 24.3191C15.9022 23.8718 15.3 23.5093 14.5572 23.5093C13.8144 23.5093 13.2122 23.8718 13.2122 24.3191C13.2122 24.7663 13.8144 25.1288 14.5572 25.1288Z" fill="#FCB997"/>
<path d="M15.3591 13.7257C15.3233 13.7152 15.2882 13.7007 15.254 13.6828C14.4323 13.2503 13.5853 12.8341 12.7318 12.443C12.1057 13.0034 11.0672 13.9881 10.2202 14.7979V13.1143C11.0167 12.3604 11.809 11.6203 12.228 11.2648C12.4081 11.1117 12.6609 11.076 12.8769 11.1733C13.6635 11.5271 14.4461 11.9013 15.2124 12.2916C15.2156 12.7467 15.2589 13.2277 15.3591 13.7257Z" fill="#41B787"/>
</g>
<defs>
<clipPath id="clip0">
<rect width="39.8922" height="39.6297" fill="white" transform="translate(0.94873 0.510742)"/>
</clipPath>
</defs>
</svg>
