<svg width="26" height="27" viewBox="0 0 26 27" fill="none" xmlns="http://www.w3.org/2000/svg">
<path fill-rule="evenodd" clip-rule="evenodd" d="M12.9167 26.6654C20.0503 26.6654 25.8333 20.8824 25.8333 13.7487C25.8333 6.61502 20.0503 0.832031 12.9167 0.832031C5.78299 0.832031 0 6.61502 0 13.7487C0 20.8824 5.78299 26.6654 12.9167 26.6654ZM11.5134 15.3964C11.4058 16.1202 12.0197 16.7174 12.7515 16.7174H13.3588C13.7167 16.7174 14.013 16.4393 14.0356 16.082C14.1092 15.4015 14.4002 14.8077 14.9086 14.3008L15.7215 13.4987C16.357 12.8598 16.8019 12.2799 17.0562 11.7591C17.3104 11.2313 17.4375 10.6723 17.4375 10.082C17.4375 8.78342 17.0461 7.77995 16.2634 7.07161C15.4806 6.35634 14.3801 5.9987 12.9618 5.9987C11.5569 5.9987 10.4463 6.3737 9.63016 7.1237C9.14612 7.57215 8.80441 8.12365 8.60502 8.77818C8.36753 9.55774 9.06933 10.2383 9.88426 10.2383C10.5741 10.2383 11.0884 9.67637 11.5682 9.15202C11.6353 9.0788 11.7016 9.00632 11.7676 8.9362C12.0687 8.61675 12.4668 8.45703 12.9618 8.45703C14.0055 8.45703 14.5273 9.04384 14.5273 10.2174C14.5273 10.6063 14.427 10.9779 14.2263 11.332C14.0256 11.6793 13.6208 12.1341 13.012 12.6966C12.4099 13.2522 11.9951 13.8181 11.7676 14.3945C11.655 14.68 11.5703 15.0139 11.5134 15.3964ZM11.587 18.7695C11.286 19.0681 11.1354 19.4501 11.1354 19.9154C11.1354 20.3737 11.2826 20.7522 11.577 21.0508C11.878 21.3494 12.2727 21.4987 12.7611 21.4987C13.2495 21.4987 13.6409 21.3494 13.9352 21.0508C14.2363 20.7522 14.3868 20.3737 14.3868 19.9154C14.3868 19.4501 14.2329 19.0681 13.9252 18.7695C13.6241 18.464 13.2361 18.3112 12.7611 18.3112C12.2861 18.3112 11.8948 18.464 11.587 18.7695Z" fill="#FF6B45"/>
</svg>
