<svg width="40" height="39" viewBox="0 0 40 39" fill="none" xmlns="http://www.w3.org/2000/svg">
<path d="M36.1881 9.66797L35.0078 14.6252L31.6422 17.2699L17.9453 28.0315L20.3828 30.469L16.1171 31.0784L14.3761 29.3374L12.5968 30.9425C14.8697 33.3483 17.4785 35.4561 20.3828 37.1721C28.9323 32.1204 34.9944 23.7391 37.1168 14.0378L38.0546 9.75023C37.4294 9.75023 36.8072 9.72159 36.1881 9.66797Z" fill="#63C1FF"/>
<path d="M11.8515 21.9375L24.9232 5.30034L20.3828 1.82812L15.8319 5.30827C12.0648 8.18878 7.45364 9.75 2.71088 9.75L3.6487 14.0376C4.67185 18.7139 6.61819 23.0783 9.3098 26.9167L10.6328 25.5938L8.80463 23.7656L9.414 19.5L11.8515 21.9375Z" fill="#63C1FF"/>
<path d="M30.7421 9.14062L28.3046 11.5781L14.8984 24.9844L17.9453 28.0312L31.6422 17.2697L35.0078 14.625L38.0546 1.82812L30.7421 9.14062Z" fill="#EBEBEB"/>
<path d="M25.2578 4.875L24.9232 5.30034L11.8515 21.9375L14.8984 24.9844L28.3046 11.5781L30.7421 9.14062L38.0546 1.82812L25.2578 4.875Z" fill="#E6E6E6"/>
<path d="M10.6327 25.5938L9.30978 26.9167L3.57252 32.654C3.0966 33.1299 3.0966 33.9014 3.57252 34.3773L5.50546 36.3102C5.98138 36.7861 6.75285 36.7861 7.22877 36.3102L11.8515 31.6875L14.289 29.25L10.6327 25.5938Z" fill="#BEBEBE"/>
<path d="M20.3827 7.3125L16.9879 9.77803C14.3182 11.8194 11.0514 12.9255 7.69128 12.9255L8.35611 15.9638C8.62119 17.1752 8.97402 18.3574 9.40789 19.503L11.8515 21.9375L22.1938 8.775L20.3827 7.3125Z" fill="#4398D1"/>
<path d="M31.6422 17.2695C29.6385 24.1098 26.5588 28.6472 20.3827 32.2967C19.5997 31.8342 18.8489 31.3351 18.1281 30.8031L20.6874 30.5771L18.1281 28.0311L31.6422 17.2695Z" fill="#4398D1"/>
<path d="M30.7421 9.14062L29.1315 10.7512V19.2459L30.5465 18.1454L30.7421 9.14062Z" fill="#F5F5F5"/>
<path d="M27.6081 12.2925L27.6678 20.4343L26.6288 21.271V13.2474L27.6081 12.2925Z" fill="#F5F5F5"/>
<path d="M20.3828 32.2967C20.8343 32.0176 21.8184 31.3936 22.2359 31.103L20.3828 29.2498L30.0535 21.6515C30.6556 20.3006 31.1797 18.849 31.6422 17.2695L17.9453 28.0311L16.7265 29.8592C17.3414 30.3126 20.3828 32.2967 20.3828 32.2967Z" fill="#3F8FC4"/>
<path d="M36.1881 9.66797L35.0078 14.6252L31.6422 17.2699C31.1797 18.8494 30.6556 20.301 30.0535 21.6519L34.0797 18.4887L36.4319 16.6404C36.6884 15.7837 36.9242 14.9183 37.1168 14.0384L38.0546 9.75023C37.4294 9.75023 36.8072 9.72159 36.1881 9.66797Z" fill="#5EB7F2"/>
<path d="M16.1171 31.0781L13.6796 28.6406L12.5968 30.9422C13.1879 31.5681 13.8033 32.1726 14.4389 32.7563L16.1171 31.0781Z" fill="#5EB7F2"/>
<path d="M11.8515 31.6875L14.289 29.25L10.6328 25.5938L10.3281 25.8984C10.7851 27.1172 11.2421 28.6406 11.2421 29.8594C11.2421 30.7814 10.9807 31.877 10.6553 32.8837L11.8515 31.6875Z" fill="#B0B0B0"/>
<path d="M9.414 19.5L8.80463 23.7656L16.1171 31.0781L20.3828 30.4688L9.414 19.5Z" fill="#8C421C"/>
<path d="M19.7734 29.8594L15.5078 30.4688L16.1171 31.0781L20.3828 30.4688L19.7734 29.8594Z" fill="#803C19"/>
</svg>
