<svg width="20" height="20" viewBox="0 0 20 20" fill="none" xmlns="http://www.w3.org/2000/svg">
<g clip-path="url(#clip0)">
<path d="M13.501 19.9509H2.2843C1.94006 19.9509 1.66113 19.6718 1.66113 19.3278C1.66113 18.9837 1.94006 18.7046 2.2843 18.7046H13.501C13.8453 18.7046 14.1242 18.9837 14.1242 19.3278C14.1242 19.6718 13.8453 19.9509 13.501 19.9509Z" fill="#5F6B7A"/>
<path d="M17.8035 20C17.8023 20 17.8008 20 17.7992 20C17.4552 19.9976 17.1779 19.7166 17.1803 19.3726L17.1819 19.147C17.1904 17.7812 16.2183 16.6289 14.8706 16.4073L12.1416 16.0608C11.8288 16.021 11.595 15.7538 11.5968 15.4385L11.6094 13.4625C11.6112 13.1656 11.8227 12.9109 12.1144 12.8546C13.3042 12.625 14.5365 12.2859 15.229 12.0845C14.9382 10.8305 14.3547 7.80563 14.7017 4.9321C14.7048 4.90509 14.7098 4.87839 14.7165 4.85214C14.7606 4.68018 14.7814 4.5372 14.7823 4.40216C14.7856 3.90259 14.594 3.43185 14.243 3.07632C13.8922 2.72095 13.4239 2.5235 12.9247 2.52045C12.4454 2.52899 11.9924 2.69806 11.6391 3.02887C11.4984 3.16086 11.3062 3.21899 11.1139 3.18954C10.9235 3.15872 10.7579 3.04169 10.6658 2.87216C10.0569 1.75339 9.60985 1.25305 8.57073 1.24634C8.56401 1.24634 8.5573 1.24634 8.55058 1.24634C6.84145 1.24634 5.44603 2.63077 5.43504 4.34235C5.43413 4.49249 5.44786 4.63821 5.46739 4.7821C5.59908 6.95099 5.58885 10.5473 4.24852 11.9975C4.82362 12.2577 6.08049 12.6358 7.95274 12.8877C8.26341 12.9298 8.49474 13.1956 8.49291 13.5094L8.481 15.4108C8.47933 15.7254 8.24281 15.9892 7.93062 16.0258L5.17473 16.3489C3.84447 16.5503 2.85799 17.6901 2.84944 19.0564L2.84792 19.2824C2.84547 19.6249 2.56715 19.9013 2.22475 19.9013C2.22353 19.9013 2.222 19.9013 2.22048 19.9013C1.87639 19.8988 1.59914 19.6181 1.60158 19.2738L1.6031 19.0482C1.61562 17.0651 3.04781 15.4105 5.00902 15.1138L7.23802 14.8521L7.24321 14.0446C5.46373 13.7708 2.98998 13.2127 2.76186 12.2104C2.68129 11.8562 2.83601 11.5115 3.17629 11.2878C4.0146 10.7362 4.42751 8.23013 4.22807 4.90311C4.20137 4.72031 4.18764 4.52469 4.18886 4.33411C4.20412 1.93863 6.15816 0 8.55074 0H8.57866C10.054 0.00946047 10.8302 0.764008 11.4054 1.66687C11.87 1.40701 12.4129 1.2886 12.9324 1.27396C13.7651 1.27945 14.5452 1.60843 15.13 2.20047C15.7149 2.79266 16.0338 3.57742 16.0285 4.40948C16.0272 4.63348 15.9963 4.86618 15.9342 5.11948C15.5335 8.53409 16.5671 12.3056 16.5778 12.3433C16.6678 12.6669 16.4852 13.0038 16.1646 13.1046C16.0924 13.1273 14.5271 13.6185 12.8522 13.976L12.8464 14.8936L15.0501 15.174C17.0293 15.499 18.4403 17.1718 18.4281 19.1551L18.4265 19.3808C18.4242 19.7237 18.1458 20 17.8035 20Z" fill="#5F6B7A"/>
</g>
<defs>
<clipPath id="clip0">
<rect width="20" height="20" fill="white"/>
</clipPath>
</defs>
</svg>