<svg width="15" height="16" viewBox="0 0 15 16" fill="none" xmlns="http://www.w3.org/2000/svg">
<path fill-rule="evenodd" clip-rule="evenodd" d="M2.57143 2.69824C2.57143 1.20805 3.81864 0 5.35714 0C6.21876 0 6.98901 0.37889 7.5 0.974037C8.01099 0.37889 8.78124 0 9.64286 0C11.1814 0 12.4286 1.20805 12.4286 2.69824C12.4286 3.23318 12.2679 3.73176 11.9906 4.15115H12.6429C13.9447 4.15115 15 5.17334 15 6.43428V8.09473C15 8.76237 14.5351 9.32482 13.9017 9.49494C14.0252 11.0114 13.9537 12.5378 13.6881 14.0389C13.5296 14.9353 12.778 15.622 11.8449 15.723L11.061 15.8078C8.69438 16.0641 6.30563 16.0641 3.93898 15.8078L3.15515 15.723C2.22205 15.622 1.47045 14.9353 1.31187 14.0389C1.0463 12.5378 0.974779 11.0114 1.09826 9.49494C0.464913 9.32482 0 8.76237 0 8.09473V6.43428C0 5.17334 1.05533 4.15115 2.35714 4.15115H3.00935C2.73214 3.73176 2.57143 3.23318 2.57143 2.69824ZM6.85714 2.69824C6.85714 1.89583 6.18557 1.24534 5.35714 1.24534C4.52872 1.24534 3.85714 1.89583 3.85714 2.69824C3.85714 3.50066 4.52872 4.15115 5.35714 4.15115C6.18557 4.15115 6.85714 3.50066 6.85714 2.69824ZM9.64286 4.15115C10.4713 4.15115 11.1429 3.50066 11.1429 2.69824C11.1429 1.89583 10.4713 1.24534 9.64286 1.24534C8.81443 1.24534 8.14286 1.89583 8.14286 2.69824C8.14286 3.50066 8.81443 4.15115 9.64286 4.15115ZM1.28571 6.43428C1.28571 5.86112 1.76541 5.39649 2.35714 5.39649H6.85714V8.30229H1.5C1.38165 8.30229 1.28571 8.20936 1.28571 8.09473V6.43428ZM8.14286 9.54764H12.6163C12.7365 10.9761 12.6711 12.4144 12.4209 13.8286C12.359 14.1782 12.0659 14.446 11.702 14.4854L10.9182 14.5702C9.99565 14.6701 9.06958 14.7294 8.14286 14.7482V9.54764ZM8.14286 8.30229H13.5C13.6183 8.30229 13.7143 8.20936 13.7143 8.09473V6.43428C13.7143 5.86112 13.2346 5.39649 12.6429 5.39649H8.14286V8.30229ZM6.85714 9.54764V14.7482C5.93042 14.7294 5.00436 14.6701 4.08179 14.5702L3.29796 14.4854C2.93407 14.446 2.64096 14.1782 2.57911 13.8286C2.32892 12.4144 2.26349 10.9761 2.38374 9.54764H6.85714Z" fill="white"/>
</svg>
