<svg width="18" height="18" viewBox="0 0 18 18" fill="none" xmlns="http://www.w3.org/2000/svg">
<path fill-rule="evenodd" clip-rule="evenodd" d="M8.99984 17.3332C13.6022 17.3332 17.3332 13.6022 17.3332 8.99984C17.3332 4.39746 13.6022 0.666504 8.99984 0.666504C4.39746 0.666504 0.666504 4.39746 0.666504 8.99984C0.666504 13.6022 4.39746 17.3332 8.99984 17.3332ZM8.99984 3.99984C9.46008 3.99984 9.83317 4.37293 9.83317 4.83317V9.83317C9.83317 10.2934 9.46008 10.6665 8.99984 10.6665C8.5396 10.6665 8.16651 10.2934 8.16651 9.83317V4.83317C8.16651 4.37293 8.5396 3.99984 8.99984 3.99984ZM9.83317 13.1665C9.83317 13.6267 9.46008 13.9998 8.99984 13.9998C8.5396 13.9998 8.16651 13.6267 8.16651 13.1665C8.16651 12.7063 8.5396 12.3332 8.99984 12.3332C9.46008 12.3332 9.83317 12.7063 9.83317 13.1665Z" fill="#788DDF"/>
</svg>
