<svg width="17" height="24" viewBox="0 0 17 24" fill="none" xmlns="http://www.w3.org/2000/svg">
<path fill-rule="evenodd" clip-rule="evenodd" d="M9.21741 23.7217C11.2667 21.8897 17 16.1149 17 8.8481C17 4.42405 14.3437 0 8.5 0C2.65625 0 0 4.42405 0 8.8481C0 16.1149 5.73332 21.8897 7.78258 23.7217C8.19769 24.0928 8.80231 24.0928 9.21741 23.7217ZM8.5 12.1661C10.5119 12.1661 12.1429 10.5321 12.1429 8.5163C12.1429 6.50055 10.5119 4.86646 8.5 4.86646C6.48811 4.86646 4.85714 6.50055 4.85714 8.5163C4.85714 10.5321 6.48811 12.1661 8.5 12.1661Z" fill="#C0C0C0"/>
</svg>
