<svg width="19" height="19" viewBox="0 0 19 19" fill="none" xmlns="http://www.w3.org/2000/svg">
<g clip-path="url(#clip0)">
<path d="M13.7713 18.8612H1.32318C0.961365 18.8612 0.667969 18.5698 0.667969 18.2105C0.667969 17.8513 0.961365 17.5601 1.32318 17.5601H13.7713C14.1333 17.5601 14.4266 17.8513 14.4266 18.2105C14.4266 18.5698 14.1333 18.8612 13.7713 18.8612Z" fill="#5F6B7A"/>
<path d="M14.8035 13.8456L13.1163 13.5813V12.2455C13.8789 11.9771 14.4266 11.2538 14.4266 10.4059V8.34334C15.1892 8.07498 15.737 7.35162 15.737 6.50364C15.737 5.65581 15.1892 4.93245 14.4266 4.66408V3.12224C14.4266 1.40068 13.0155 0 11.2812 0H4.59895C4.23714 0 3.94389 0.291244 3.94389 0.650407C3.94389 1.37578 4.19278 2.03986 4.59895 2.58134V4.66408C3.83633 4.93245 3.28867 5.65581 3.28867 6.50364C3.28867 7.35162 3.83633 8.07498 4.59895 8.34334V10.4059C4.59895 11.2538 5.14675 11.9771 5.90938 12.2455V13.5813L4.2225 13.8458C2.16293 14.1684 0.667969 15.9052 0.667969 17.9747V18.2102C0.667969 18.5694 0.961365 18.8607 1.32318 18.8607C1.685 18.8607 1.97825 18.5694 1.97825 18.2102V17.9747C1.97825 16.5491 3.00803 15.3529 4.42689 15.1306L6.66693 14.7795C6.98526 14.7296 7.21966 14.4572 7.21966 14.137V11.7066C7.21966 11.3474 6.92641 11.0562 6.56459 11.0562C6.20335 11.0562 5.90938 10.7644 5.90938 10.4059V7.80445C5.90938 7.44529 5.61598 7.15405 5.25417 7.15405C4.89307 7.15405 4.59895 6.86223 4.59895 6.50364C4.59895 6.1452 4.89307 5.85338 5.25417 5.85338C5.61598 5.85338 5.90938 5.56213 5.90938 5.20297V3.6266C6.31135 3.80172 6.75333 3.90216 7.21966 3.90216H8.53008C8.8919 3.90216 9.18515 3.61105 9.18515 3.25189C9.18515 2.89273 8.8919 2.60148 8.53008 2.60148H7.21966C6.36556 2.60148 5.63686 2.0577 5.36651 1.30067H11.2812C12.2931 1.30067 13.1163 2.11785 13.1163 3.12224V5.20297C13.1163 5.56213 13.4095 5.85338 13.7713 5.85338C14.1326 5.85338 14.4266 6.1452 14.4266 6.50364C14.4266 6.86223 14.1326 7.15405 13.7713 7.15405C13.4095 7.15405 13.1163 7.44529 13.1163 7.80445V10.4059C13.1163 10.7644 12.8223 11.0562 12.4611 11.0562C12.0993 11.0562 11.8059 11.3474 11.8059 11.7066V14.137C11.8059 14.4572 12.0404 14.7296 12.3587 14.7794L14.5989 15.1306C16.0175 15.3528 17.0473 16.5491 17.0473 17.9745V18.2102C17.0473 18.5694 17.3407 18.8607 17.7025 18.8607C18.0643 18.8607 18.3577 18.5694 18.3577 18.2102V17.9747C18.3577 15.9052 16.8627 14.1684 14.8035 13.8456Z" fill="#5F6B7A"/>
</g>
<defs>
<clipPath id="clip0">
<rect width="19" height="18.8607" fill="white"/>
</clipPath>
</defs>
</svg>