<svg width="41" height="41" viewBox="0 0 41 41" fill="none" xmlns="http://www.w3.org/2000/svg">
<g clip-path="url(#clip0)">
<path d="M30.3908 40.0977V35.2961C30.3908 32.3825 29.3602 29.708 27.6407 27.6128H8.64412C6.92462 29.708 5.89404 32.3825 5.89404 35.2961V40.0977" fill="#FF525D"/>
<path d="M11.1123 27.6128H8.64412C6.92462 29.708 5.89404 32.3825 5.89404 35.296V40.0977H9.07679V35.296C9.07686 32.3824 9.83957 29.708 11.1123 27.6128Z" fill="#EF4152"/>
<path d="M18.7631 27.6777H17.5225V40.1405H18.7631V27.6777Z" fill="#FCF8F2"/>
<path d="M32.5647 12.1035C34.5746 12.1035 36.2039 10.4849 36.2039 8.48827C36.2039 6.49164 34.5746 4.87305 32.5647 4.87305C30.5548 4.87305 28.9255 6.49164 28.9255 8.48827C28.9255 10.4849 30.5548 12.1035 32.5647 12.1035Z" fill="#FCF8F2"/>
<path d="M31.5719 8.48827C31.5719 6.95555 32.5325 5.64668 33.8878 5.12058C33.4775 4.96136 33.0315 4.87305 32.5645 4.87305C30.5546 4.87305 28.9253 6.49161 28.9253 8.48827C28.9253 10.4849 30.5546 12.1035 32.5645 12.1035C33.0315 12.1035 33.4775 12.0152 33.8878 11.856C32.5325 11.3299 31.5719 10.021 31.5719 8.48827Z" fill="#E5E1DC"/>
<path d="M32.6017 4.91408L29.6729 8.06923L21.2962 5.20334L15.1501 3.1007C15.1501 3.1007 15.7953 2.33984 17.6264 1.55761C20.4063 0.370416 23.4309 0.216772 26.2174 0.975934C26.2183 0.975934 26.2183 0.975934 26.219 0.975934C28.6118 1.62751 30.8293 2.95279 32.5645 4.87298L32.6017 4.91408Z" fill="#FF525D"/>
<path d="M8.11824 19.1685C6.71951 19.1685 5.58569 18.042 5.58569 16.6526C5.58569 15.2632 6.71959 14.1367 8.11824 14.1367H28.1669C29.5656 14.1367 30.6994 15.2632 30.6994 16.6526C30.6994 18.042 29.5656 19.1685 28.1669 19.1685" fill="#EFC1AB"/>
<path d="M27.4489 22.7188L28.3647 24.2969C28.9253 25.2628 28.7383 26.4856 27.9143 27.2427L23.7254 31.0908C22.6312 32.096 20.8894 31.8798 20.0777 30.6381L18.1425 27.678L16.2073 30.6381C15.3956 31.8798 13.6538 32.0959 12.5596 31.0908L8.37091 27.2426C7.54689 26.4856 7.35989 25.2628 7.92049 24.2968L8.8363 22.7188" fill="#FCF8F2"/>
<path d="M28.0785 13.3023C28.1372 13.7352 28.167 14.1773 28.167 14.6259V19.2279C28.167 24.7281 23.6792 27.6778 18.1427 27.6778C12.6062 27.6778 8.11841 24.7281 8.11841 19.2279V14.6259C8.11841 12.4305 8.83304 10.401 10.0456 8.75527L17.0171 6.72168L27.1902 8.11848L28.0785 13.3023Z" fill="#FFDAC5"/>
<path d="M10.8475 19.1686V11.0171L8.11816 14.626V19.1687C8.11816 24.6696 12.606 27.6186 18.1424 27.6186C18.6054 27.6186 19.0608 27.5974 19.5071 27.5564C14.6163 27.107 10.8475 24.2096 10.8475 19.1686Z" fill="#EFC1AB"/>
<path d="M24.5734 21.945C25.3271 21.945 25.9381 21.5772 25.9381 21.1234C25.9381 20.6696 25.3271 20.3018 24.5734 20.3018C23.8197 20.3018 23.2087 20.6696 23.2087 21.1234C23.2087 21.5772 23.8197 21.945 24.5734 21.945Z" fill="#FCB997"/>
<path d="M11.7121 21.945C12.4658 21.945 13.0768 21.5772 13.0768 21.1234C13.0768 20.6696 12.4658 20.3018 11.7121 20.3018C10.9584 20.3018 10.3474 20.6696 10.3474 21.1234C10.3474 21.5772 10.9584 21.945 11.7121 21.945Z" fill="#FCB997"/>
<path d="M28.1667 14.6256V19.2276C28.1667 19.6442 28.1411 20.0451 28.0906 20.4321C26.6299 20.0246 26.0618 18.6565 25.8715 17.314C25.7218 16.2631 25.8037 13.5689 25.8699 11.9766C26.6126 12.3702 27.3512 12.8106 28.0782 13.3027C28.1369 13.7358 28.1667 14.177 28.1667 14.6256Z" fill="#5C5E70"/>
<path d="M20.6891 9.90054C20.6891 9.90054 18.9447 13.6316 10.941 14.2462C10.7756 14.2594 10.6068 14.2708 10.4357 14.2807C10.4357 14.2807 11.4149 19.6338 8.20418 20.4513C8.20169 20.4521 8.1992 20.4529 8.1967 20.4538C8.14458 20.0602 8.11816 19.6518 8.11816 19.2279V14.6259C8.11816 12.4304 8.8328 10.4009 10.0453 8.75522C10.0453 8.75522 11.0808 8.64593 12.7615 8.69028C14.7283 8.74283 17.5793 9.00577 20.6891 9.90054Z" fill="#5C5E70"/>
<path d="M26.2174 0.975934C23.8743 0.560206 21.4831 2.16568 21.4831 4.74976C21.4831 4.94698 21.4178 5.09652 21.2962 5.20334L15.1501 3.1007C15.1501 3.1007 15.7953 2.33984 17.6264 1.55761C20.4063 0.370416 23.4309 0.216772 26.2174 0.975934Z" fill="#EF4152"/>
<path d="M10.9413 14.2462C10.7758 14.2594 10.6071 14.2708 10.4359 14.2807C10.4359 14.2807 11.4151 19.6338 8.20443 20.4513C8.14739 20.0404 8.11841 19.6132 8.11841 19.1687V14.6259C8.11841 12.4304 8.83304 10.4009 10.0456 8.75522C10.0456 8.75522 11.081 8.64593 12.7617 8.69028C11.7824 10.4001 11.1629 12.2899 10.9413 14.2462Z" fill="#494B5B"/>
<path d="M29.5887 9.47583L28.0784 13.3031C23.2168 10.0124 17.8176 9.02147 14.2057 8.76179C11.693 8.58183 10.0454 8.75521 10.0454 8.75521L11.7095 4.53601C12.0511 3.67081 12.8865 3.09811 13.8219 3.08666C14.4736 3.07845 15.3032 3.09161 16.2668 3.15647C19.4651 3.37173 24.1282 4.15968 28.5771 6.6542C29.5747 7.21297 30.0064 8.41665 29.5887 9.47583Z" fill="#FCF8F2"/>
<path d="M14.2057 8.76179C11.693 8.58183 10.0454 8.75521 10.0454 8.75521L11.7095 4.53601C12.0511 3.67081 12.8865 3.09811 13.8219 3.08666C14.4736 3.07845 15.3032 3.09161 16.2668 3.15647C15.8028 3.46461 13.6904 5.08735 14.2057 8.76179Z" fill="#E5E1DC"/>
<path d="M13.349 19.8646C13.0064 19.8646 12.7288 19.5886 12.7288 19.2484V17.9673C12.7288 17.6269 13.0065 17.3511 13.349 17.3511C13.6916 17.3511 13.9693 17.627 13.9693 17.9673V19.2484C13.9693 19.5887 13.6916 19.8646 13.349 19.8646Z" fill="#313344"/>
<path d="M22.936 19.8646C22.5934 19.8646 22.3157 19.5886 22.3157 19.2484V17.9673C22.3157 17.6269 22.5934 17.3511 22.936 17.3511C23.2785 17.3511 23.5562 17.627 23.5562 17.9673V19.2484C23.5562 19.5887 23.2786 19.8646 22.936 19.8646Z" fill="#313344"/>
<path d="M18.1425 23.0648C17.2791 23.0648 16.4673 22.7308 15.8567 22.1242C15.6145 21.8836 15.6145 21.4935 15.8567 21.2528C16.099 21.0121 16.4917 21.0121 16.734 21.2528C17.1102 21.6266 17.6104 21.8324 18.1425 21.8324C18.6746 21.8324 19.1748 21.6266 19.5511 21.2528C19.7933 21.0121 20.1861 21.0121 20.4283 21.2528C20.6705 21.4934 20.6705 21.8836 20.4283 22.1243C19.8177 22.7308 19.006 23.0648 18.1425 23.0648Z" fill="#CE5B6C"/>
<path d="M15.0323 36.5474C15.8545 36.5474 16.521 35.8852 16.521 35.0684C16.521 34.2515 15.8545 33.5894 15.0323 33.5894C14.21 33.5894 13.5435 34.2515 13.5435 35.0684C13.5435 35.8852 14.21 36.5474 15.0323 36.5474Z" fill="#FCF8F2"/>
</g>
<defs>
<clipPath id="clip0">
<rect width="39.8922" height="39.6297" fill="white" transform="translate(0.94873 0.510742)"/>
</clipPath>
</defs>
</svg>
