<svg width="11" height="15" viewBox="0 0 11 15" fill="none" xmlns="http://www.w3.org/2000/svg">
<path fill-rule="evenodd" clip-rule="evenodd" d="M5.91833 14.2277C7.11373 13.1611 10.4582 9.79888 10.4582 5.56802C10.4582 2.99226 8.90869 0.416504 5.49984 0.416504C2.09098 0.416504 0.541504 2.99226 0.541504 5.56802C0.541504 9.79888 3.88594 13.1611 5.08135 14.2277C5.32349 14.4437 5.67619 14.4437 5.91833 14.2277ZM5.49984 7.49984C6.67344 7.49984 7.62484 6.54844 7.62484 5.37484C7.62484 4.20123 6.67344 3.24984 5.49984 3.24984C4.32623 3.24984 3.37484 4.20123 3.37484 5.37484C3.37484 6.54844 4.32623 7.49984 5.49984 7.49984Z" fill="#788DDF"/>
</svg>
