<svg width="38" height="38" viewBox="0 0 38 38" fill="none" xmlns="http://www.w3.org/2000/svg">
<g clip-path="url(#clip0)">
<path d="M23.7687 26.3291C32.1536 40.7566 44.9021 18.8209 28.1323 18.8209C44.9021 18.8209 32.1536 -3.11476 23.7687 11.3128C32.1536 -3.11468 6.65672 -3.11468 15.0416 11.3128C6.65672 -3.11476 -6.09178 18.8209 10.678 18.8209C-6.09178 18.8209 6.65672 40.7566 15.0416 26.3291C6.65672 40.7566 32.1536 40.7566 23.7687 26.3291Z" fill="#FF728B"/>
<path d="M10.678 18.8103L19.1823 18.6967L19.178 18.6897L19.1849 18.6898L15.0415 11.3128C6.65664 -3.11468 32.1535 -3.11468 23.7686 11.3128L19.6246 18.6909L19.6326 18.6909L19.6283 18.6979L28.1321 18.8498C44.9017 18.9051 32.0801 40.7985 23.7435 26.3436L19.4084 19.076L19.4051 19.0819L19.4012 19.075L15.0323 26.3239C6.62991 40.7412 -6.0917 18.7902 10.678 18.8103Z" fill="#FF3F62"/>
<path d="M19.4051 30.1919C19.717 30.1919 19.9699 30.4431 19.9699 30.753V33.1095C19.9699 33.4194 19.717 33.6706 19.4051 33.6706C19.0931 33.6706 18.8403 33.4194 18.8403 33.1095V30.7529C18.8403 30.4431 19.0931 30.1919 19.4051 30.1919Z" fill="#FF0C38"/>
<path d="M28.3725 12.1457L26.9182 13.3448C26.8127 13.4318 26.6849 13.4742 26.5577 13.4742C26.3955 13.4742 26.2345 13.4051 26.1229 13.2714C25.9236 13.0329 25.9567 12.6792 26.1967 12.4813L27.6511 11.2822C27.8911 11.0843 28.2472 11.1171 28.4464 11.3556C28.6456 11.594 28.6125 11.9478 28.3725 12.1457Z" fill="#FF0C38"/>
<path d="M29.2554 23.4887L31.3431 24.6118C31.6175 24.7594 31.7193 25.0999 31.5709 25.3724C31.4686 25.56 31.2743 25.6664 31.0737 25.6664C30.9829 25.6664 30.8908 25.6445 30.8053 25.5985L28.7176 24.4755C28.4433 24.3279 28.3414 23.9874 28.4898 23.7149C28.6383 23.4425 28.9811 23.3411 29.2554 23.4887Z" fill="#FF0C38"/>
<path d="M9.23595 27.0648L10.741 25.7317C10.9738 25.5255 11.3309 25.5457 11.5384 25.777C11.746 26.0084 11.7256 26.3631 11.4927 26.5692L9.98765 27.9023C9.87998 27.9977 9.74578 28.0446 9.61194 28.0446C9.45656 28.0446 9.30175 27.9812 9.19019 27.8569C8.98269 27.6257 9.00309 27.2711 9.23595 27.0648Z" fill="#FF0C38"/>
<path d="M9.42227 21.7334L18.1054 18.6781L9.30934 13.1608C9.04563 12.9954 8.96678 12.6489 9.13326 12.3868C9.29975 12.1247 9.64865 12.0465 9.91242 12.2119L18.8263 17.8031V9.4322C18.8263 9.12233 19.0792 8.87109 19.3911 8.87109C19.7031 8.87109 19.9559 9.12233 19.9559 9.4322V17.6262L24.7303 13.6898C24.9704 13.4918 25.3265 13.5247 25.5256 13.7632C25.7249 14.0017 25.6917 14.3553 25.4517 14.5532L22.2183 17.2192L29.8788 14.4935C30.1722 14.3891 30.4957 14.5408 30.6009 14.8325C30.7061 15.1242 30.5533 15.4455 30.2596 15.5499L20.7719 18.9258L26.8255 22.1822C27.0998 22.3297 27.2017 22.6702 27.0532 22.9427C26.9509 23.1303 26.7566 23.2367 26.5561 23.2367C26.4653 23.2367 26.3731 23.2149 26.2877 23.1689L19.9722 19.7716L19.9691 28.3971C19.9691 28.7069 19.7162 28.958 19.4043 28.958H19.4042C19.0922 28.958 18.8394 28.7066 18.8395 28.3968L18.8425 20.0589L12.9434 25.2841C12.8357 25.3795 12.7015 25.4264 12.5677 25.4264C12.4122 25.4264 12.2575 25.363 12.1458 25.2386C11.9383 25.0073 11.9587 24.6526 12.1915 24.4465L16.8681 20.3041L9.79942 22.7914C9.73708 22.8133 9.67344 22.8237 9.61088 22.8237C9.37838 22.8237 9.16051 22.68 9.07849 22.4498C8.97428 22.1576 9.12822 21.8369 9.42227 21.7334Z" fill="#FF0C38"/>
<path d="M19.392 7.37466C19.0801 7.37466 18.8272 7.12343 18.8272 6.81356V4.44392C18.8272 4.13405 19.0801 3.88281 19.392 3.88281C19.704 3.88281 19.9568 4.13405 19.9568 4.44392V6.81356C19.9568 7.12343 19.704 7.37466 19.392 7.37466Z" fill="#FF0C38"/>
<path d="M19.3918 23.1973C16.9587 23.1973 14.9863 21.2379 14.9863 18.8208C14.9863 16.4038 16.9587 14.4443 19.3918 14.4443C21.8249 14.4443 23.7973 16.4038 23.7973 18.8208C23.7973 21.2379 21.8249 23.1973 19.3918 23.1973Z" fill="#FFEB99"/>
<path d="M21.5642 18.8208C21.5642 16.787 20.1676 15.0777 18.2754 14.5865C18.6321 14.4939 19.0062 14.4443 19.3921 14.4443C21.8252 14.4443 23.7976 16.4037 23.7976 18.8208C23.7976 21.2379 21.8252 23.1973 19.3921 23.1973C19.0062 23.1973 18.6321 23.1477 18.2754 23.0551C20.1676 22.5639 21.5642 20.8545 21.5642 18.8208Z" fill="#FFDA44"/>
</g>
<defs>
<clipPath id="clip0">
<rect width="36.9003" height="36.6575" fill="white" transform="matrix(-1 0 0 1 37.8518 0.492188)"/>
</clipPath>
</defs>
</svg>
