<svg width="42" height="41" viewBox="0 0 42 41" fill="none" xmlns="http://www.w3.org/2000/svg">
<path d="M19.2866 39.232C19.2866 41.0091 20.28 40.9361 21.508 40.9361C22.7347 40.9361 23.7282 41.0098 23.7282 39.232C23.7282 37.4575 22.7347 24.0024 21.508 24.0024C20.2807 24.0024 19.2866 37.4575 19.2866 39.232Z" fill="#DDB185"/>
<path d="M34.2349 33.6904C30.2711 26.8024 26.3036 19.915 22.3347 13.0251C21.9744 12.3998 21.0339 12.3998 20.6736 13.0251C16.7054 19.915 12.7423 26.8024 8.77412 33.6917C8.40931 34.3239 8.87188 35.1414 9.60469 35.1414H33.4049C34.1365 35.1414 34.6003 34.3239 34.2336 33.6917" fill="#0B7D70"/>
<path d="M34.2349 29.6207C30.2711 23.6667 26.3036 17.7166 22.3347 11.762C21.9744 11.2219 21.0339 11.2219 20.6736 11.762C16.7054 17.7153 12.7423 23.6661 8.77412 29.6207C8.40931 30.1671 8.87188 30.8737 9.60469 30.8737H33.4049C34.1365 30.8737 34.6003 30.1671 34.2336 29.6207" fill="#2BB573"/>
<path d="M31.3049 23.3468L22.0281 6.86356C21.7457 6.36579 21.0135 6.36579 20.7324 6.86356C17.6414 12.3588 14.5479 17.8535 11.4556 23.3468C11.1713 23.8529 11.5323 24.5057 12.1034 24.5057H30.6558C31.2269 24.5057 31.5866 23.8523 31.3049 23.3468Z" fill="#0B7D70"/>
<path d="M31.7962 18.9111C28.5902 14.2966 25.3849 9.68221 22.1763 5.06715C21.885 4.64754 21.1247 4.64754 20.8327 5.06715C17.6272 9.68258 14.4206 14.2972 11.2128 18.9111C10.917 19.3351 11.2927 19.8848 11.8837 19.8848H31.1228C31.7138 19.8848 32.0888 19.3351 31.7936 18.9111" fill="#04A69C"/>
<path d="M17.8912 19.2382C17.8817 19.7803 17.6602 20.2969 17.2746 20.6769C16.8889 21.0568 16.3698 21.2697 15.8291 21.2697C15.2884 21.2697 14.7694 21.0568 14.3837 20.6769C13.998 20.2969 13.7766 19.7803 13.7671 19.2382C13.7669 18.9667 13.8201 18.6979 13.9236 18.447C14.0271 18.1962 14.1789 17.9682 14.3704 17.7762C14.5618 17.5843 14.789 17.432 15.0392 17.3281C15.2893 17.2242 15.5574 17.1708 15.8282 17.1709C16.0991 17.1706 16.3673 17.2238 16.6177 17.3275C16.8681 17.4312 17.0956 17.5834 17.2872 17.7753C17.4789 17.9672 17.6309 18.1952 17.7347 18.4461C17.8384 18.697 17.8918 18.9659 17.8918 19.2376" fill="#FBB041"/>
<path d="M30.5082 28.3321C30.5148 28.6079 30.4663 28.8822 30.3656 29.139C30.2648 29.3957 30.1139 29.6296 29.9216 29.827C29.7293 30.0243 29.4996 30.1811 29.246 30.2881C28.9924 30.3951 28.72 30.4501 28.4448 30.4498C28.1696 30.4496 27.8973 30.3942 27.6439 30.2868C27.3904 30.1795 27.1609 30.0224 26.9689 29.8247C26.777 29.6271 26.6264 29.3929 26.526 29.136C26.4257 28.8791 26.3777 28.6047 26.3847 28.3289C26.3985 27.7895 26.622 27.2769 27.0075 26.9005C27.393 26.524 27.9099 26.3135 28.448 26.314C28.9861 26.3144 29.5027 26.5257 29.8876 26.9027C30.2725 27.2797 30.4952 27.7927 30.5082 28.3321Z" fill="#ED2E7C"/>
<path d="M15.8301 32.3421C15.8348 32.6167 15.7849 32.8894 15.6833 33.1445C15.5817 33.3995 15.4305 33.6317 15.2385 33.8275C15.0464 34.0233 14.8174 34.1788 14.5648 34.2849C14.3122 34.391 14.041 34.4456 13.7671 34.4454C13.4932 34.4453 13.2221 34.3905 12.9696 34.2842C12.717 34.1778 12.4882 34.0221 12.2963 33.8262C12.1044 33.6302 11.9534 33.3978 11.8521 33.1427C11.7507 32.8876 11.7011 32.6147 11.706 32.3402C11.7158 31.7981 11.9375 31.2816 12.3233 30.9018C12.7092 30.522 13.2283 30.3093 13.769 30.3096C14.3097 30.3098 14.8287 30.523 15.2142 30.9031C15.5997 31.2833 15.8209 31.8 15.8301 32.3421Z" fill="#57C6E9"/>
<path d="M25.7899 11.2271C25.7965 11.5029 25.7481 11.7773 25.6473 12.034C25.5466 12.2907 25.3956 12.5247 25.2034 12.722C25.0111 12.9194 24.7814 13.0761 24.5277 13.1831C24.2741 13.2901 24.0017 13.3451 23.7265 13.3449C23.4514 13.3446 23.1791 13.2892 22.9256 13.1819C22.6721 13.0745 22.4427 12.9174 22.2507 12.7197C22.0587 12.5221 21.9081 12.2879 21.8078 12.031C21.7074 11.7741 21.6594 11.4997 21.6665 11.2239C21.6803 10.6845 21.9037 10.1719 22.2892 9.79547C22.6747 9.41903 23.1916 9.20857 23.7297 9.20898C24.2678 9.2094 24.7844 9.42067 25.1693 9.79771C25.5542 10.1747 25.7769 10.6877 25.7899 11.2271Z" fill="#ED2E7C"/>
<path d="M25.7899 22.8677C25.7965 23.1435 25.7481 23.4179 25.6473 23.6746C25.5466 23.9314 25.3956 24.1653 25.2034 24.3626C25.0111 24.56 24.7814 24.7168 24.5277 24.8237C24.2741 24.9307 24.0017 24.9857 23.7265 24.9855C23.4514 24.9853 23.1791 24.9298 22.9256 24.8225C22.6721 24.7151 22.4427 24.558 22.2507 24.3603C22.0587 24.1627 21.9081 23.9285 21.8078 23.6716C21.7074 23.4147 21.6594 23.1403 21.6665 22.8645C21.6803 22.3251 21.9037 21.8125 22.2892 21.4361C22.6747 21.0597 23.1916 20.8492 23.7297 20.8496C24.2678 20.85 24.7844 21.0613 25.1693 21.4383C25.5542 21.8154 25.7769 22.3283 25.7899 22.8677Z" fill="#F7EC35"/>
<path d="M25.0366 2.6113L23.2918 4.27693L23.6706 6.66261L21.5521 5.51333L19.4066 6.612L19.8424 4.23593L18.1371 2.5293L20.5253 2.21027L21.6172 0.0571289L22.6574 2.23589" fill="#FFCC00"/>
</svg>
