<svg width="11" height="15" viewBox="0 0 11 15" fill="none" xmlns="http://www.w3.org/2000/svg">
<path d="M4.76167 10.5654C3.59882 10.4441 2.55033 10.1577 1.65267 9.45565C1.54129 9.3683 1.42629 9.28409 1.32465 9.18654C0.93174 8.80918 0.892151 8.377 1.20305 7.93163C1.46902 7.5505 1.9155 7.44855 2.37957 7.66739C2.46943 7.7098 2.55505 7.76274 2.63705 7.81961C4.31001 8.96911 6.60821 9.00084 8.28745 7.8713C8.45382 7.74374 8.63165 7.63974 8.83777 7.58664C9.23853 7.48374 9.61227 7.63094 9.82734 7.98158C10.073 8.38203 10.0699 8.77289 9.76717 9.08379C9.30278 9.56043 8.74429 9.90526 8.12375 10.1459C7.53698 10.3734 6.89429 10.4879 6.25819 10.564C6.35418 10.6685 6.39943 10.7198 6.45944 10.7801C7.32317 11.648 8.19067 12.5122 9.05158 13.3827C9.34488 13.6793 9.40615 14.047 9.24465 14.392C9.06808 14.7691 8.67281 15.0171 8.28525 14.9906C8.0397 14.9736 7.8482 14.8514 7.67806 14.68C7.02625 14.0241 6.36219 13.3803 5.72359 12.712C5.53774 12.5177 5.44835 12.5544 5.28434 12.7232C4.6286 13.3982 3.96219 14.0629 3.29184 14.7238C2.99084 15.0206 2.63266 15.074 2.28358 14.9045C1.91251 14.7246 1.67639 14.3458 1.69461 13.9652C1.70718 13.7077 1.8338 13.511 2.01054 13.3346C2.86532 12.4811 3.71774 11.6253 4.57048 10.7704C4.62687 10.7135 4.6795 10.6532 4.76167 10.5654Z" fill="#3A414B"/>
<path d="M5.47008 7.59247C3.39558 7.5854 1.69451 5.86563 1.70661 3.78784C1.71855 1.6871 3.42072 -0.00579775 5.51564 1.49239e-05C7.6148 0.0056705 9.29969 1.72292 9.28916 3.84549C9.27848 5.91905 7.56562 7.59969 5.47008 7.59247ZM7.35542 3.79286C7.35181 2.76119 6.53018 1.93988 5.50055 1.93893C4.46229 1.93783 3.63327 2.77407 3.64128 3.81517C3.64898 4.84292 4.47768 5.65842 5.51014 5.65465C6.53945 5.65103 7.35888 4.82438 7.35542 3.79286Z" fill="#3A414B"/>
</svg>
