<svg width="25" height="25" viewBox="0 0 25 25" fill="none" xmlns="http://www.w3.org/2000/svg">
<path fill-rule="evenodd" clip-rule="evenodd" d="M12.5 25C19.4036 25 25 19.4036 25 12.5C25 5.59644 19.4036 0 12.5 0C5.59644 0 0 5.59644 0 12.5C0 19.4036 5.59644 25 12.5 25ZM12.5 11.25C14.5711 11.25 16.25 9.57107 16.25 7.5C16.25 5.42893 14.5711 3.75 12.5 3.75C10.4289 3.75 8.75 5.42893 8.75 7.5C8.75 9.57107 10.4289 11.25 12.5 11.25ZM5 17.5C5.9375 14.6875 10.625 13.75 12.5 13.75C14.375 13.75 19.0625 14.6875 20 17.5C19.0625 20.3125 15.3125 21.25 12.5 21.25C9.6875 21.25 5.9375 20.3125 5 17.5Z" fill="#D2D2D2"/>
</svg>
