<svg width="25" height="21" viewBox="0 0 25 21" fill="none" xmlns="http://www.w3.org/2000/svg">
<path d="M10.68 4.64L11.1272 5.53442C11.3939 5.40108 11.5872 5.1557 11.6543 4.8652C11.7215 4.5747 11.6555 4.26939 11.4744 4.03255L10.68 4.64ZM7.56 6.96L6.83299 6.27337L6.8318 6.27464L7.56 6.96ZM5.8 10.56L4.8222 10.3505C4.7645 10.6197 4.82038 10.9008 4.97666 11.1275C5.13294 11.3543 5.37579 11.5065 5.64794 11.5484L5.8 10.56ZM6.84 10.72L6.68794 11.7084C6.70966 11.7117 6.73148 11.7143 6.75337 11.7162L6.84 10.72ZM9.48 12.16L8.632 12.69C8.63972 12.7023 8.64771 12.7145 8.65596 12.7265L9.48 12.16ZM9.32 18L8.52561 17.3925L8.52 17.4L9.32 18ZM4.6 18.96L4.25826 19.8998L4.6 18.96ZM2.92 17.92L2.21289 18.6271C2.22529 18.6395 2.23801 18.6516 2.25104 18.6633L2.92 17.92ZM3.32 6.4L4.12274 6.99632H4.12274L3.32 6.4ZM8.6 1.92L9.39436 1.31255C9.09839 0.925514 8.56656 0.808121 8.13517 1.0346L8.6 1.92ZM23.24 4.64L23.6872 5.53442C23.9539 5.40108 24.1472 5.1557 24.2143 4.8652C24.2815 4.5747 24.2155 4.26939 24.0344 4.03255L23.24 4.64ZM20.12 6.96L19.393 6.27337L19.3918 6.27464L20.12 6.96ZM18.36 10.56L17.3822 10.3505C17.3245 10.6197 17.3804 10.9008 17.5367 11.1275C17.6929 11.3543 17.9358 11.5065 18.2079 11.5484L18.36 10.56ZM19.4 10.72L19.2479 11.7084C19.2697 11.7117 19.2915 11.7143 19.3134 11.7162L19.4 10.72ZM22.04 12.16L21.192 12.69C21.1997 12.7023 21.2077 12.7145 21.216 12.7265L22.04 12.16ZM21.88 18L21.0856 17.3925L21.08 17.4L21.88 18ZM17.16 18.96L17.5017 18.0202L17.16 18.96ZM15.48 17.92L14.7729 18.6271C14.7853 18.6395 14.798 18.6516 14.811 18.6633L15.48 17.92ZM14.28 15.92L15.2163 15.5689V15.5689L14.28 15.92ZM15.88 6.4L16.6827 6.99632L15.88 6.4ZM21.16 1.92L21.9544 1.31255C21.6584 0.925514 21.1266 0.808121 20.6952 1.0346L21.16 1.92ZM10.2328 3.74557C8.95404 4.38494 7.8195 5.22884 6.83299 6.27338L8.28701 7.64662C9.11384 6.77116 10.0593 6.06838 11.1272 5.53442L10.2328 3.74557ZM6.8318 6.27464C5.82786 7.34132 5.17178 8.71909 4.8222 10.3505L6.7778 10.7695C7.06822 9.41425 7.58547 8.39201 8.2882 7.64536L6.8318 6.27464ZM5.64794 11.5484L6.68794 11.7084L6.99206 9.73163L5.95206 9.57162L5.64794 11.5484ZM6.75337 11.7162C7.74521 11.8025 8.30272 12.1632 8.632 12.69L10.328 11.63C9.59061 10.4502 8.38812 9.85085 6.92663 9.72375L6.75337 11.7162ZM8.65596 12.7265C9.12441 13.4079 9.36 14.1692 9.36 15.04H11.36C11.36 13.7775 11.0089 12.6188 10.304 11.5935L8.65596 12.7265ZM9.36 15.04C9.36 15.8712 9.09556 16.6473 8.52564 17.3925L10.1144 18.6075C10.9311 17.5394 11.36 16.3421 11.36 15.04H9.36ZM8.52 17.4C8.12327 17.929 7.45524 18.28 6.28 18.28V20.28C7.87809 20.28 9.23673 19.7777 10.12 18.6L8.52 17.4ZM6.28 18.28C5.88122 18.28 5.43717 18.2004 4.94174 18.0202L4.25826 19.8998C4.93616 20.1463 5.61212 20.28 6.28 20.28V18.28ZM4.94174 18.0202C4.49241 17.8568 4.04097 17.5835 3.58896 17.1767L2.25104 18.6633C2.8657 19.2165 3.53426 19.6365 4.25826 19.8998L4.94174 18.0202ZM3.62711 17.2129C3.27636 16.8621 2.94248 16.3319 2.65633 15.5689L0.783671 16.2711C1.13752 17.2147 1.60364 18.0179 2.21289 18.6271L3.62711 17.2129ZM2.65633 15.5689C2.39172 14.8633 2.24 13.9249 2.24 12.72H0.24C0.24 14.0751 0.40828 15.2701 0.783671 16.2711L2.65633 15.5689ZM2.24 12.72C2.24 10.586 2.86543 8.68886 4.12274 6.99632L2.51726 5.80367C1.00124 7.84447 0.24 10.1607 0.24 12.72H2.24ZM4.12274 6.99632C5.41662 5.25456 7.05946 3.85822 9.06483 2.8054L8.13517 1.0346C5.87388 2.22178 3.99671 3.8121 2.51726 5.80367L4.12274 6.99632ZM7.80564 2.52745L9.88564 5.24744L11.4744 4.03255L9.39436 1.31255L7.80564 2.52745ZM22.7928 3.74557C21.514 4.38494 20.3795 5.22884 19.393 6.27337L20.847 7.64662C21.6738 6.77116 22.6193 6.06838 23.6872 5.53442L22.7928 3.74557ZM19.3918 6.27464C18.3879 7.34132 17.7318 8.71909 17.3822 10.3505L19.3378 10.7695C19.6282 9.41425 20.1455 8.39201 20.8482 7.64536L19.3918 6.27464ZM18.2079 11.5484L19.2479 11.7084L19.5521 9.73163L18.5121 9.57162L18.2079 11.5484ZM19.3134 11.7162C20.3052 11.8025 20.8627 12.1632 21.192 12.69L22.888 11.63C22.1506 10.4502 20.9481 9.85085 19.4866 9.72375L19.3134 11.7162ZM21.216 12.7265C21.6844 13.4079 21.92 14.1692 21.92 15.04H23.92C23.92 13.7775 23.5689 12.6188 22.864 11.5935L21.216 12.7265ZM21.92 15.04C21.92 15.8712 21.6556 16.6473 21.0856 17.3925L22.6744 18.6075C23.4911 17.5394 23.92 16.3421 23.92 15.04H21.92ZM21.08 17.4C20.6833 17.929 20.0152 18.28 18.84 18.28V20.28C20.4381 20.28 21.7967 19.7777 22.68 18.6L21.08 17.4ZM18.84 18.28C18.4412 18.28 17.9972 18.2004 17.5017 18.0202L16.8183 19.8998C17.4962 20.1463 18.1721 20.28 18.84 20.28V18.28ZM17.5017 18.0202C17.0524 17.8568 16.601 17.5835 16.149 17.1767L14.811 18.6633C15.4257 19.2165 16.0943 19.6365 16.8183 19.8998L17.5017 18.0202ZM16.1871 17.2129C15.8364 16.8621 15.5025 16.3319 15.2163 15.5689L13.3437 16.2711C13.6975 17.2147 14.1636 18.0179 14.7729 18.6271L16.1871 17.2129ZM15.2163 15.5689C14.9517 14.8633 14.8 13.9249 14.8 12.72H12.8C12.8 14.0751 12.9683 15.2701 13.3437 16.2711L15.2163 15.5689ZM14.8 12.72C14.8 10.586 15.4254 8.68886 16.6827 6.99632L15.0773 5.80367C13.5612 7.84447 12.8 10.1607 12.8 12.72H14.8ZM16.6827 6.99632C17.9766 5.25456 19.6195 3.85822 21.6248 2.8054L20.6952 1.0346C18.4339 2.22178 16.5567 3.8121 15.0773 5.80367L16.6827 6.99632ZM20.3656 2.52745L22.4456 5.24744L24.0344 4.03255L21.9544 1.31255L20.3656 2.52745Z" fill="#3240BD"/>
</svg>
