<svg width="35" height="35" viewBox="0 0 35 35" fill="none" xmlns="http://www.w3.org/2000/svg">
<path d="M17.5 35C7.85021 35 0 27.1498 0 17.5C0 7.85021 7.85021 0 17.5 0C27.1498 0 35 7.85021 35 17.5C35 27.1498 27.1498 35 17.5 35ZM17.5 2.1875C9.05625 2.1875 2.1875 9.05625 2.1875 17.5C2.1875 25.9438 9.05625 32.8125 17.5 32.8125C25.9438 32.8125 32.8125 25.9438 32.8125 17.5C32.8125 9.05625 25.9438 2.1875 17.5 2.1875Z" fill="#F38686"/>
<path d="M4.18539 24.7919H2.31873C1.71498 24.7919 1.22498 24.3019 1.22498 23.6982C1.22498 23.0944 1.71498 22.6044 2.31873 22.6044H4.18539C5.01956 22.6044 5.80852 22.2807 6.40789 21.693C6.99123 21.1096 7.32373 20.3236 7.33539 19.4836C7.35289 18.2075 7.78602 17.0117 8.58373 16.0244C9.43102 15.0225 10.5539 14.3503 11.7585 14.1096C13.895 13.6488 15.3985 11.7909 15.3985 9.59608V8.06483C15.3985 5.87733 14.3354 3.824 12.5548 2.57275C12.0619 2.22567 11.9408 1.54317 12.2879 1.04879C12.635 0.554417 13.316 0.431917 13.8119 0.781917C16.1758 2.4415 17.5875 5.16421 17.5875 8.06483V9.59608C17.5875 12.8307 15.3737 15.568 12.2048 16.2505C11.2627 16.4371 10.6356 16.9884 10.271 17.4186C9.79852 18.0019 9.53456 18.7325 9.52435 19.5128C9.5054 20.9244 8.94685 22.25 7.94935 23.2475C6.92998 24.245 5.5956 24.7919 4.18539 24.7919Z" fill="#F38686"/>
<path d="M19.25 34.8983C18.9321 34.8983 18.6171 34.7597 18.4012 34.4943L15.8637 31.3735C13.2942 28.1943 13.526 23.6064 16.4019 20.6985C18.3939 18.705 21.5483 18.04 24.2287 19.0929L25.0687 19.4312C26.1392 19.8556 27.3962 19.4662 28.0394 18.5081C29.0223 17.0031 31.1835 16.4635 32.8431 17.41L34.3671 18.3272C34.8848 18.6393 35.0525 19.3116 34.7404 19.8293C34.4283 20.3456 33.7575 20.5104 33.2398 20.2012L31.7392 19.297C31.1121 18.9412 30.2487 19.1279 29.8637 19.717C28.6431 21.5297 26.285 22.2589 24.2623 21.4641L23.4208 21.1258C21.5614 20.3952 19.3375 20.8545 17.9535 22.2414C15.8667 24.3516 15.6975 27.6883 17.5627 29.9968L20.0987 33.1162C20.4794 33.5843 20.4094 34.2741 19.9412 34.6547C19.7371 34.8181 19.4935 34.8983 19.25 34.8983Z" fill="#F38686"/>
<path d="M28.6271 14.2038C26.3885 14.2038 24.3527 13.0517 23.186 11.1252C21.4943 8.28729 21.0889 4.87042 22.0704 1.74229C22.2512 1.16625 22.8681 0.839585 23.4412 1.02625C24.0187 1.20708 24.3381 1.82104 24.1573 2.39708C23.361 4.93021 23.6906 7.70104 25.06 9.99646C25.9116 11.4052 27.4998 12.1985 29.1389 11.9798L33.0166 11.5117C33.6058 11.446 34.16 11.866 34.2329 12.4669C34.3058 13.0663 33.8785 13.6117 33.2791 13.6831L29.4146 14.1498C29.1594 14.1863 28.8939 14.2038 28.6271 14.2038Z" fill="#F38686"/>
</svg>
