<svg width="28" height="36" viewBox="0 0 28 36" fill="none" xmlns="http://www.w3.org/2000/svg">
<path d="M24.3403 0.931641H18.0058C16.5283 0.931641 15.3264 2.13354 15.3264 3.61075V9.94548C15.3264 11.4227 16.5283 12.6246 18.0058 12.6246H24.3403C25.8175 12.6246 27.0194 11.4227 27.0194 9.94548V3.61075C27.0196 2.13354 25.8177 0.931641 24.3403 0.931641ZM24.9688 9.94548C24.9688 10.2918 24.6869 10.5738 24.3403 10.5738H18.0058C17.6592 10.5738 17.3775 10.2918 17.3775 9.94548V3.61075C17.3775 3.26441 17.6592 2.98243 18.0058 2.98243H24.3403C24.6869 2.98243 24.9688 3.26441 24.9688 3.61075V9.94548Z" fill="#F38686"/>
<path d="M19.4335 15.1846C18.9413 15.1846 18.4775 15.3066 18.0703 15.5221C17.5456 14.736 16.6508 14.2174 15.6368 14.2174C15.1132 14.2174 14.6213 14.3557 14.1957 14.5979C13.663 13.8746 12.8055 13.4043 11.8402 13.4043C11.5363 13.4043 11.2431 13.4508 10.9673 13.5373V12.6246H11.2108C12.6883 12.6246 13.8902 11.4227 13.8902 9.94522V3.61075C13.8902 2.13354 12.6883 0.931641 11.2108 0.931641H4.87636C3.39916 0.931641 2.19726 2.13354 2.19726 3.61075V9.94548C2.19726 11.4227 3.39916 12.6246 4.87636 12.6246H5.12016V18.9767C4.96154 18.8178 4.78344 18.676 4.58797 18.5545C3.95805 18.1633 3.21944 18.0271 2.49526 18.1665C1.71634 18.1978 1.01752 18.5377 0.563571 19.1099C0.0866571 19.711 -0.0789011 20.5169 0.108821 21.3212L1.45652 27.0882C2.22503 31.8998 5.97839 35.4997 6.13834 35.6511C6.32873 35.8313 6.58108 35.9317 6.8433 35.9317H18.3763C18.7216 35.9317 19.0433 35.7579 19.2332 35.4695C21.2757 32.3623 22.3558 28.7548 22.3561 25.0366L22.3572 18.1083C22.3572 18.1083 22.3572 18.1083 22.3572 18.108C22.3572 16.496 21.0455 15.1846 19.4335 15.1846ZM7.27402 33.8809C6.44756 33.0019 4.01226 30.1633 3.47633 26.7331C3.47232 26.7077 3.46752 26.6826 3.46164 26.658L2.10567 20.8547C2.06054 20.6608 2.08324 20.4937 2.17002 20.3845C2.25654 20.2752 2.40501 20.2181 2.60314 20.1991C2.70274 20.1898 2.74413 20.178 2.83652 20.1724C3.06911 20.1583 3.30756 20.1735 3.5057 20.2966C3.70384 20.4197 3.84189 20.6125 3.89503 20.8395L5.06462 25.8452C5.16235 26.2631 5.51002 26.5761 5.93567 26.6295L6.01791 26.6396C6.30978 26.6762 6.60324 26.5857 6.82381 26.391C7.04437 26.1964 7.17068 25.9162 7.17068 25.6222V9.32571C7.17068 8.84425 7.56214 8.45279 8.0436 8.45279C8.52478 8.45279 8.91652 8.84425 8.91652 9.32571V18.9412C8.91652 19.5073 9.37554 19.9666 9.94191 19.9666C10.5083 19.9666 10.9673 19.5073 10.9673 18.9412V16.328C10.9673 15.8466 11.3588 15.4551 11.8402 15.4551C12.3214 15.4551 12.7131 15.8466 12.7131 16.328V19.0579C12.7131 19.6242 13.1722 20.0833 13.7385 20.0833C14.3049 20.0833 14.7639 19.6242 14.7639 19.0579V17.1411C14.7639 16.6599 15.1557 16.2682 15.6368 16.2682C16.1183 16.2682 16.5098 16.6599 16.5098 17.1411V19.774C16.5098 20.3401 16.9688 20.7994 17.5352 20.7994C18.1015 20.7994 18.5605 20.3401 18.5605 19.774V18.1083C18.5605 17.6268 18.9523 17.2351 19.4335 17.2351C19.9149 17.2351 20.3064 17.6268 20.3064 18.108L20.3053 25.0364C20.305 28.1705 19.4447 31.2165 17.8126 33.8809H7.27402ZM4.24804 9.94548V3.61075C4.24804 3.26441 4.53003 2.98243 4.87636 2.98243H11.2108C11.5574 2.98243 11.8394 3.26441 11.8394 3.61075V9.94548C11.8394 10.2918 11.5574 10.5738 11.2108 10.5738H10.9673V9.32544C10.9673 7.71338 9.65565 6.40174 8.0436 6.40174C6.43154 6.40174 5.11989 7.71338 5.11989 9.32544V10.5738H4.87636C4.53003 10.5738 4.24804 10.2918 4.24804 9.94548Z" fill="#F38686"/>
</svg>
