<svg width="31" height="35" viewBox="0 0 31 35" fill="none" xmlns="http://www.w3.org/2000/svg">
<path d="M30.9229 10.2233L29.1695 5.40567C28.5894 3.8118 26.8207 2.98691 25.2269 3.56721L22.003 4.74067C22.0082 4.70916 22.0136 4.67764 22.0181 4.64585C22.2295 3.15924 21.607 1.72404 20.3531 0.806792C19.1677 -0.0604835 17.6506 -0.240542 16.2951 0.324927C14.9396 0.890464 14.0003 2.09523 13.7833 3.54274L13.3227 6.51343L10.9409 4.40803C9.84043 3.43521 8.34651 3.11583 6.94466 3.55416C3.85817 4.51871 3.01359 8.47316 5.40692 10.6211C5.44991 10.6597 5.4938 10.6969 5.5381 10.7335L2.10222 11.9841C0.504868 12.5655 -0.317768 14.329 0.263833 15.9267L2.01732 20.7443L4.20085 19.9545V31.9239C4.20085 33.62 5.56708 35 7.26328 35C7.56338 35 27.1349 35 27.7705 35C29.4667 35 30.8466 33.6201 30.8466 31.9239V16.4067C30.1878 16.4067 13.9345 16.4067 13.9345 16.4067L30.9229 10.2233ZM25.9283 5.49426C26.4594 5.30094 27.0491 5.57582 27.2424 6.1071L28.2946 8.99768L18.6593 12.5047L17.2566 8.65055L25.9283 5.49426ZM15.8107 3.85172C15.9209 3.11522 16.3973 2.50436 17.0845 2.21759C17.7655 1.93349 18.5355 2.01805 19.1423 2.46191C20.52 3.4698 20.1897 5.40047 18.6185 5.97257C18.3551 6.06841 16.6381 6.69342 16.5551 6.72357L15.2942 7.18247L15.8107 3.85172ZM15.3294 9.35192L16.7321 13.206C16.0582 13.4513 15.4791 13.662 14.8051 13.9074L13.4024 10.0533L15.3294 9.35192ZM7.55627 5.51135C8.25825 5.29206 9.01752 5.44477 9.58272 5.94434L12.2405 8.29385C11.4694 8.57454 9.64615 9.23817 8.90664 9.50723C8.16221 9.778 7.36603 9.62385 6.77657 9.09475C5.54323 7.98788 6.01333 5.99356 7.55627 5.51135ZM3.24287 18.1158L2.19075 15.2252C1.99688 14.6929 2.27093 14.1048 2.80359 13.9109L11.4753 10.7547L12.878 14.6087L3.24287 18.1158ZM20.5929 18.4575H28.8095V31.9239C28.8095 32.4893 28.3358 32.9493 27.7704 32.9493H20.5929V18.4575ZM16.4915 18.4575H18.5558V32.9492H16.4915V18.4575ZM14.4543 18.4575V32.9492H7.26315C6.69775 32.9492 6.23776 32.4892 6.23776 31.9238V19.208L8.29989 18.4575H14.4543Z" fill="#F38686"/>
</svg>
