<svg width="35" height="35" viewBox="0 0 35 35" fill="none" xmlns="http://www.w3.org/2000/svg">
<path d="M20.2343 19.5502C25.6244 19.5502 30.0094 15.1652 30.0094 9.7751C30.0094 4.38506 25.6244 0 20.2343 0C14.8443 0 10.4592 4.38506 10.4592 9.7751C10.4592 15.1652 14.8444 19.5502 20.2343 19.5502ZM20.2343 2.05072C24.4936 2.05072 27.9587 5.51582 27.9587 9.7751C27.9587 14.0344 24.4936 17.4995 20.2343 17.4995C15.9751 17.4995 12.51 14.0344 12.51 9.7751C12.51 5.51582 15.9751 2.05072 20.2343 2.05072Z" fill="#F38686"/>
<path d="M21.3727 8.77174C20.8618 8.591 20.0286 8.28743 19.6112 7.96006C19.5859 7.94017 19.5386 7.82116 19.5718 7.64432C19.5878 7.55942 19.6612 7.27601 19.9363 7.19309C20.361 7.06438 20.7642 7.14893 21.0288 7.34485C21.4463 7.72512 22.0931 7.6962 22.4749 7.2795C22.8563 6.86327 22.8291 6.21756 22.4153 5.83449C22.4153 5.83449 21.9402 5.41149 21.2609 5.21134V5.12692C21.2609 4.56065 20.8018 4.10156 20.2355 4.10156C19.6693 4.10156 19.2102 4.56065 19.2102 5.12692V5.27526C17.3671 5.94557 16.9337 8.46673 18.3457 9.57384C18.989 10.0782 19.9082 10.4288 20.6885 10.705C21.1968 10.8847 21.2484 11.2492 21.2023 11.5234C21.151 11.8285 20.8881 12.346 20.2286 12.3503C19.5449 12.3547 19.3827 12.3296 18.8837 12.003C18.4098 11.6929 17.7744 11.8255 17.4642 12.2994C17.1541 12.7732 17.2867 13.4088 17.7606 13.7189C18.3057 14.0757 18.7374 14.2524 19.2101 14.3352V14.4338C19.2101 15.0001 19.6692 15.4592 20.2355 15.4592C20.8017 15.4592 21.2608 15.0001 21.2608 14.4338V14.2193C23.7451 13.3214 24.0748 9.72751 21.3727 8.77174Z" fill="#F38686"/>
<path d="M29.6709 19.9617L17.9163 22.6365C17.6473 22.3922 17.3385 22.187 16.9963 22.033L10.9605 19.3253C9.20489 18.5352 7.19546 18.5448 5.45255 19.3493L0.601227 21.5569C0.0857438 21.7914 -0.141955 22.3994 0.0926479 22.9148C0.327182 23.4303 0.935152 23.658 1.45057 23.4233L6.30695 21.2135C7.51564 20.6556 8.90508 20.6491 10.1201 21.1958L16.1559 23.9036C16.6834 24.141 17.0215 24.6685 17.0215 25.2423C17.0215 26.3035 15.9292 27.0215 14.9509 26.5811L9.73193 24.2326C9.21535 24.0001 8.60847 24.2304 8.37613 24.7468C8.14371 25.2633 8.37401 25.8703 8.89038 26.1026L14.1094 28.4512C16.7345 29.6325 19.6081 27.3217 18.9914 24.4948C26.6478 22.7526 30.1698 21.9524 30.2187 21.9379C31.6007 21.5294 32.9488 22.5672 32.9488 23.9753C32.9488 24.7226 32.5494 25.4234 31.9089 25.8029L20.8621 32.3091C19.6968 32.9995 18.2953 33.1388 17.017 32.691L8.5421 29.7249C8.31371 29.645 8.06441 29.6484 7.83836 29.7346L0.660834 32.4689C0.131612 32.6705 -0.133888 33.2629 0.0676975 33.7921C0.269283 34.3213 0.861737 34.5868 1.39089 34.3852L8.21829 31.7843L16.3393 34.6265C18.1536 35.2619 20.1864 35.093 21.9051 34.0747L32.9519 27.5685C34.2149 26.8202 34.9995 25.4434 34.9995 23.9753C34.9995 21.226 32.3666 19.1882 29.6709 19.9617Z" fill="#F38686"/>
</svg>
