<svg width="25" height="25" viewBox="0 0 25 25" fill="none" xmlns="http://www.w3.org/2000/svg">
<path fill-rule="evenodd" clip-rule="evenodd" d="M12.5 25.0007C19.4036 25.0007 25 19.4043 25 12.5007C25 5.59717 19.4036 0.000732422 12.5 0.000732422C5.59644 0.000732422 0 5.59717 0 12.5007C0 19.4043 5.59644 25.0007 12.5 25.0007ZM12.5 5.00073C13.1904 5.00073 13.75 5.56038 13.75 6.25073V13.7507C13.75 14.4411 13.1904 15.0007 12.5 15.0007C11.8096 15.0007 11.25 14.4411 11.25 13.7507V6.25073C11.25 5.56038 11.8096 5.00073 12.5 5.00073ZM13.75 18.7507C13.75 19.4411 13.1904 20.0007 12.5 20.0007C11.8096 20.0007 11.25 19.4411 11.25 18.7507C11.25 18.0604 11.8096 17.5007 12.5 17.5007C13.1904 17.5007 13.75 18.0604 13.75 18.7507Z" fill="#B4B4B4"/>
</svg>
