<svg width="18" height="18" viewBox="0 0 18 18" fill="none" xmlns="http://www.w3.org/2000/svg">
<path fill-rule="evenodd" clip-rule="evenodd" d="M8.99984 17.3332C13.6022 17.3332 17.3332 13.6022 17.3332 8.99984C17.3332 4.39746 13.6022 0.666504 8.99984 0.666504C4.39746 0.666504 0.666504 4.39746 0.666504 8.99984C0.666504 13.6022 4.39746 17.3332 8.99984 17.3332ZM12.919 11.0166L11.9289 10.0243C11.5988 9.69357 10.9388 9.69357 10.6087 10.0243L9.94868 10.6858C8.76481 10.5174 7.47346 9.19744 7.30844 8.03982L7.9685 7.37832C8.29853 7.04757 8.29856 6.38605 7.9685 6.05532L6.97248 5.10107C6.6424 4.77031 5.98841 4.73228 5.65833 5.06307C4.99827 5.72457 4.83317 6.22077 4.83317 6.88223C4.83317 7.87451 4.99837 9.0319 6.97854 11.0164C8.95872 13.0009 9.78359 13.1665 11.1037 13.1665C11.4418 13.1665 12.2804 12.9795 12.919 12.3396C13.249 12.0088 13.249 11.3473 12.919 11.0166Z" fill="#788DDF"/>
</svg>
