<svg width="25" height="25" viewBox="0 0 25 25" fill="none" xmlns="http://www.w3.org/2000/svg">
<path fill-rule="evenodd" clip-rule="evenodd" d="M12.5 25C19.4036 25 25 19.4036 25 12.5C25 5.59644 19.4036 0 12.5 0C5.59644 0 0 5.59644 0 12.5C0 19.4036 5.59644 25 12.5 25ZM12.5 5C13.1904 5 13.75 5.55964 13.75 6.25V13.75C13.75 14.4404 13.1904 15 12.5 15C11.8096 15 11.25 14.4404 11.25 13.75V6.25C11.25 5.55964 11.8096 5 12.5 5ZM13.75 18.75C13.75 19.4404 13.1904 20 12.5 20C11.8096 20 11.25 19.4404 11.25 18.75C11.25 18.0596 11.8096 17.5 12.5 17.5C13.1904 17.5 13.75 18.0596 13.75 18.75Z" fill="#D2D2D2"/>
</svg>
