<svg width="16" height="16" viewBox="0 0 16 16" fill="none" xmlns="http://www.w3.org/2000/svg">
<path fill-rule="evenodd" clip-rule="evenodd" d="M8 15.5C12.1421 15.5 15.5 12.1421 15.5 8C15.5 3.85786 12.1421 0.5 8 0.5C3.85786 0.5 0.5 3.85786 0.5 8C0.5 12.1421 3.85786 15.5 8 15.5ZM8 7.25C9.24264 7.25 10.25 6.24264 10.25 5C10.25 3.75736 9.24264 2.75 8 2.75C6.75736 2.75 5.75 3.75736 5.75 5C5.75 6.24264 6.75736 7.25 8 7.25ZM3.5 11C4.0625 9.3125 6.875 8.75 8 8.75C9.125 8.75 11.9375 9.3125 12.5 11C11.9375 12.6875 9.6875 13.25 8 13.25C6.3125 13.25 4.0625 12.6875 3.5 11Z" fill="white"/>
</svg>
