<svg width="37" height="36" viewBox="0 0 37 36" fill="none" xmlns="http://www.w3.org/2000/svg">
<g clip-path="url(#clip0)">
<path d="M22.102 14.7005C20.264 8.99524 14.1559 5.86247 8.45916 7.70388C2.76236 9.54459 -0.365751 15.6617 1.47294 21.367C3.31094 27.0722 9.419 30.205 15.1158 28.3636C20.8126 26.5229 23.9407 20.4058 22.102 14.7005ZM11.7853 26.7198C5.28041 26.7198 1.13166 19.8214 4.07058 14.0758C7.57021 7.22948 17.6589 7.98141 20.0385 15.3671C21.8525 20.9982 17.6381 26.7198 11.7853 26.7198Z" fill="#FAC55A"/>
<path d="M36.3222 20.825C34.4842 15.1198 28.3762 11.987 22.6794 13.8284C16.9826 15.6691 13.8545 21.7862 15.6932 27.4915C17.5312 33.1967 23.6392 36.3295 29.336 34.488C35.0328 32.6473 38.1609 26.5302 36.3222 20.825ZM26.0055 32.8442C19.5006 32.8442 15.3519 25.9458 18.2908 20.2003C21.7904 13.3539 31.8791 14.1058 34.2587 21.4915C36.0728 27.1227 31.8583 32.8442 26.0055 32.8442Z" fill="#F0A835"/>
<path d="M31.5371 9.35617C31.5052 9.37951 31.4605 9.3651 31.4483 9.32748C31.3503 9.02689 30.922 7.95217 29.7062 7.55933C28.4404 7.15032 27.1855 8.05553 26.7401 9.43801C26.2745 10.8833 26.7018 12.8812 28.6729 15.2019C29.0863 15.6886 29.7411 15.9003 30.3607 15.7473C33.3144 15.0179 34.8271 13.647 35.2927 12.2016C35.7382 10.8192 35.2482 9.35012 33.9825 8.94111C32.7667 8.54821 31.792 9.16956 31.5371 9.35617Z" fill="#DC527C"/>
<path d="M33.9825 8.94138C33.8318 8.89265 33.6849 8.85968 33.5426 8.83936C33.7921 9.44278 33.8132 10.1823 33.5822 10.899C33.1166 12.3443 31.6039 13.7152 28.6502 14.4446C28.4697 14.4892 28.2863 14.5019 28.1066 14.4868C28.2794 14.7216 28.4673 14.96 28.6729 15.2021C29.0863 15.6888 29.7411 15.9005 30.3607 15.7475C33.3144 15.0181 34.8271 13.6472 35.2928 12.2019C35.7382 10.8194 35.2483 9.35039 33.9825 8.94138Z" fill="#BF476C"/>
<path d="M7.02675 2.88009C7.05866 2.90344 7.10333 2.88902 7.1156 2.85141C7.21356 2.55082 7.6418 1.47609 8.85766 1.08326C10.1234 0.67425 11.3783 1.57945 11.8237 2.96194C12.2893 4.40721 11.862 6.40514 9.89099 8.7258C9.47755 9.21258 8.82274 9.42422 8.20313 9.27122C5.24948 8.54187 3.73672 7.17091 3.27111 5.72557C2.82569 4.34309 3.31563 2.87405 4.58135 2.46504C5.79707 2.0722 6.77178 2.69348 7.02675 2.88009Z" fill="#34B2CC"/>
<path d="M11.8236 2.96194C11.3782 1.57945 10.1234 0.67425 8.85765 1.08326C8.45584 1.21312 8.1405 1.41752 7.89423 1.64379C8.73837 1.84657 9.46035 2.5857 9.77591 3.56515C10.2332 4.98462 9.82808 6.93727 7.94633 9.20513C8.03076 9.2277 8.11624 9.24985 8.20312 9.27129C8.82272 9.42429 9.47753 9.21272 9.89098 8.72588C11.8619 6.40514 12.2893 4.40728 11.8236 2.96194Z" fill="#2E9EB5"/>
<path d="M21.1863 12.625C20.6532 13.1601 20.12 13.6951 19.5865 14.2297C19.7577 14.5898 19.91 14.9681 20.0385 15.367C20.3661 16.384 20.4962 17.4036 20.4564 18.3923H22.6223C22.6626 17.1737 22.4974 15.9275 22.1019 14.7003C21.8647 13.9638 21.5557 13.2706 21.1863 12.625Z" fill="#FAC55A"/>
</g>
<defs>
<clipPath id="clip0">
<rect width="35.903" height="36" fill="white" transform="translate(0.946106)"/>
</clipPath>
</defs>
</svg>
