<svg width="41" height="41" viewBox="0 0 41 41" fill="none" xmlns="http://www.w3.org/2000/svg">
<g clip-path="url(#clip0)">
<path d="M28.0224 33.6C28.0565 34.126 28.0744 34.6601 28.0744 35.2007V40.1403H9.65489V35.2007C9.65489 34.6601 9.67281 34.126 9.70694 33.6L8.60718 22.1216L12.7458 22.3446L28.8601 23.2124L28.0224 33.6Z" fill="#FF525D"/>
<path d="M12.7458 22.3446V40.1403H9.65489V35.2007C9.65489 34.6601 9.67281 34.126 9.70694 33.6L8.60718 22.1216L12.7458 22.3446Z" fill="#EF4152"/>
<path d="M33.8129 34.3629H29.9598C28.3956 34.3629 27.1275 33.1032 27.1275 31.5492V27.2391L13.224 27.2384H10.6016V31.5493C10.6016 33.1032 9.33342 34.363 7.76929 34.363H3.91626C5.89365 32.9295 7.0633 30.6435 7.0633 28.2121V16.8297C7.0633 13.6614 8.32895 10.7855 10.386 8.6757L13.8324 6.69034L13.9756 6.60791L23.8576 7.09276L30.1802 13.4909C30.4958 14.5487 30.6659 15.6694 30.6659 16.8298V28.2121C30.6659 30.6434 31.8355 32.9294 33.8129 34.3629Z" fill="#5C5E70"/>
<path d="M14.1784 19.5798C13.8415 19.5798 13.5684 19.3084 13.5684 18.9737V17.6371C13.5684 16.5914 13.7257 15.5546 14.0358 14.5555C14.1352 14.2357 14.4768 14.0564 14.7986 14.155C15.1205 14.2537 15.301 14.5929 15.2018 14.9127C14.9275 15.796 14.7885 16.7125 14.7885 17.6369V18.9736C14.7885 19.3085 14.5153 19.5798 14.1784 19.5798Z" fill="#494B5B"/>
<path d="M24.3712 20.4686C24.0343 20.4686 23.7611 20.1973 23.7611 19.8626V17.637C23.7611 16.7127 23.6221 15.796 23.3478 14.9127C23.2485 14.5929 23.4291 14.2537 23.751 14.155C24.0729 14.0563 24.4145 14.2358 24.5137 14.5556C24.8239 15.5548 24.9812 16.5915 24.9812 17.6371V19.8627C24.9812 20.1974 24.7081 20.4686 24.3712 20.4686Z" fill="#494B5B"/>
<path d="M26.5175 18.2429C26.1806 18.2429 25.9075 17.9715 25.9075 17.6368V16.567C25.9075 16.2323 26.1806 15.9609 26.5175 15.9609C26.8544 15.9609 27.1276 16.2323 27.1276 16.567V17.6368C27.1276 17.9716 26.8546 18.2429 26.5175 18.2429Z" fill="#494B5B"/>
<path d="M13.0109 19.2338C13.4314 21.7065 13.4257 24.5378 13.224 27.2384H10.6016V31.5493C10.6016 33.1032 9.33342 34.363 7.76928 34.363H3.91626C5.89365 32.9295 7.0633 30.6435 7.0633 28.2121V16.8298C7.0633 13.6615 8.32894 10.7856 10.386 8.67579L13.8324 6.69043L17.3008 7.92112C17.3008 7.92104 11.7086 11.5791 13.0109 19.2338Z" fill="#494B5B"/>
<path d="M34.289 12.1768C36.2656 12.1768 37.868 10.585 37.868 8.62137C37.868 6.65775 36.2656 5.06592 34.289 5.06592C32.3123 5.06592 30.71 6.65775 30.71 8.62137C30.71 10.585 32.3123 12.1768 34.289 12.1768Z" fill="#FF525D"/>
<path d="M33.3127 8.62178C33.3127 7.11446 34.2574 5.82719 35.5902 5.30984C35.1868 5.15325 34.7481 5.06641 34.2887 5.06641C32.312 5.06641 30.7097 6.65818 30.7097 8.62186C30.7097 10.5855 32.312 12.1773 34.2887 12.1773C34.748 12.1773 35.1867 12.0905 35.5902 11.9339C34.2574 11.4163 33.3127 10.1291 33.3127 8.62178Z" fill="#EF4152"/>
<path d="M34.2058 4.9877L31.8518 7.82804L21.6045 4.70898L16.4646 3.14461C16.4646 3.14461 17.1202 2.37052 18.9821 1.57537C22.2121 0.195215 25.7675 0.188713 28.9154 1.37172V1.3725C30.8863 2.11184 32.6978 3.3183 34.1684 4.94653L34.2058 4.9877Z" fill="#FCF8F2"/>
<path d="M11.5445 20.1026C11.2089 20.1307 10.9137 19.8832 10.8854 19.5496L10.7315 17.7345C10.5833 15.9876 10.8833 14.2174 11.5991 12.615L11.622 12.5636C11.7587 12.2577 12.119 12.1196 12.427 12.2553C12.735 12.3911 12.874 12.7491 12.7374 13.055L12.7145 13.1065C12.0817 14.5232 11.8163 16.0883 11.9473 17.6326L12.1013 19.4477C12.1295 19.7814 11.8802 20.0746 11.5445 20.1026Z" fill="#5C5E70"/>
<path d="M27.1275 19.334V28.9361C25.3689 31.1793 22.3252 32.3509 18.8649 32.3509C18.7714 32.3509 18.6779 32.3501 18.5851 32.3485C15.2404 32.2863 12.3122 31.1178 10.6016 28.9353V19.334H27.1275Z" fill="#EF4152"/>
<path d="M12.6812 29.0742C12.1003 32.0272 15.5617 34.4842 15.5617 34.4842L18.865 30.6542L22.1684 34.4842C22.1684 34.4842 25.6296 32.0273 25.0489 29.0742" fill="#FCF8F2"/>
<path d="M27.1275 17.6372V27.2394C25.3689 29.4825 22.3252 30.6542 18.8649 30.6542C18.7714 30.6542 18.6779 30.6534 18.5851 30.6518C15.2404 30.5896 12.3122 29.4211 10.6016 27.2386V17.6373L27.1275 17.6372Z" fill="#FFDAC5"/>
<path d="M14.2912 22.9696C13.9543 22.9696 13.6812 22.6982 13.6812 22.3636V21.1036C13.6812 20.7689 13.9543 20.4976 14.2912 20.4976C14.6281 20.4976 14.9013 20.7689 14.9013 21.1036V22.3636C14.9013 22.6983 14.6281 22.9696 14.2912 22.9696Z" fill="#313344"/>
<path d="M28.9154 1.37176V1.37253C28.9154 1.37253 22.9784 1.14389 22.3813 3.87586C22.3057 4.22255 22.0292 4.49562 21.6045 4.70894L16.4646 3.14457C16.4646 3.14457 17.1202 2.37047 18.9821 1.57533C22.2121 0.195174 25.7675 0.188749 28.9154 1.37176Z" fill="#E5E1DC"/>
<path d="M31.8519 7.82794L30.2178 13.5158C25.8572 10.5648 20.6652 9.3745 16.6876 8.91071C13.0208 8.48407 10.3862 8.67557 10.3862 8.67557L13.5195 3.20426C13.5195 3.20426 15.5977 2.98529 18.6545 3.28909C22.2863 3.65025 27.3009 4.74843 31.8519 7.82794Z" fill="#FF525D"/>
<path d="M23.7197 22.9696C23.3828 22.9696 23.1096 22.6982 23.1096 22.3636V21.1036C23.1096 20.7689 23.3828 20.4976 23.7197 20.4976C24.0566 20.4976 24.3298 20.7689 24.3298 21.1036V22.3636C24.3298 22.6983 24.0566 22.9696 23.7197 22.9696Z" fill="#313344"/>
<path d="M16.6876 8.91071C13.0208 8.48407 10.3862 8.67557 10.3862 8.67557L13.5195 3.20426C13.5195 3.20426 15.5977 2.98529 18.6545 3.28909C18.6544 3.28909 15.862 5.15572 16.6876 8.91071Z" fill="#EF4152"/>
<path d="M19.0055 27.3272C18.1914 27.3272 17.3774 27.0193 16.7576 26.4037C16.5193 26.167 16.5193 25.7833 16.7576 25.5467C16.9958 25.31 17.3821 25.3099 17.6202 25.5467C18.3841 26.3055 19.6268 26.3055 20.3907 25.5467C20.629 25.31 21.0153 25.31 21.2534 25.5467C21.4916 25.7834 21.4916 26.1671 21.2534 26.4037C20.6337 27.0193 19.8197 27.3272 19.0055 27.3272Z" fill="#CE5B6C"/>
<path d="M27.1275 18.2642V17.6372H13.0108H11.7696H10.6016V27.2385C12.3122 29.4211 15.2404 30.5895 18.5851 30.6517C19.0602 30.6437 19.5263 30.6129 19.9825 30.5604C16.0302 29.9608 13.0108 26.5581 13.0108 22.4693V19.6301C13.0108 18.8756 13.6264 18.2642 14.3858 18.2642H27.1275Z" fill="#EFC1AB"/>
<path d="M18.8645 33.9184C18.3341 33.9184 18.0572 33.2568 18.4334 32.8833C18.5979 32.7201 18.8515 32.6637 19.0702 32.7417C19.3297 32.8342 19.4998 33.0983 19.4715 33.3717C19.44 33.6775 19.1752 33.9184 18.8645 33.9184Z" fill="#FCF8F2"/>
<path d="M18.8646 36.5245C18.3233 36.5245 18.0503 35.8382 18.4515 35.4721C18.6204 35.318 18.8704 35.2716 19.0842 35.3532C19.3415 35.4515 19.5049 35.7199 19.4697 35.9923C19.431 36.292 19.1703 36.5245 18.8646 36.5245Z" fill="#FCF8F2"/>
<path d="M24.6431 25.0415C25.3201 25.0415 25.8689 24.7109 25.8689 24.3032C25.8689 23.8955 25.3201 23.5649 24.6431 23.5649C23.9661 23.5649 23.4172 23.8955 23.4172 24.3032C23.4172 24.7109 23.9661 25.0415 24.6431 25.0415Z" fill="#FCB997"/>
<path d="M13.0869 25.0415C13.7639 25.0415 14.3127 24.7109 14.3127 24.3032C14.3127 23.8955 13.7639 23.5649 13.0869 23.5649C12.4099 23.5649 11.8611 23.8955 11.8611 24.3032C11.8611 24.7109 12.4099 25.0415 13.0869 25.0415Z" fill="#FCB997"/>
<path d="M18.8644 39.1306C18.3278 39.1306 18.0528 38.4576 18.4424 38.0869C18.6188 37.919 18.8882 37.8729 19.1116 37.9707C19.3674 38.0828 19.516 38.3637 19.4637 38.6367C19.4096 38.9191 19.1552 39.1306 18.8644 39.1306Z" fill="#FCF8F2"/>
</g>
<defs>
<clipPath id="clip0">
<rect width="39.8922" height="39.6297" fill="white" transform="translate(0.946045 0.510742)"/>
</clipPath>
</defs>
</svg>
