<svg width="77" height="109" viewBox="0 0 77 109" fill="none" xmlns="http://www.w3.org/2000/svg">
<path fill-rule="evenodd" clip-rule="evenodd" d="M20.8604 93.8077C20.8604 93.8077 44.7886 110.669 59.5136 106.99C59.8203 106.99 60.4339 106.683 60.7406 106.683C61.0474 106.683 61.3542 106.377 61.6609 106.377C61.9677 106.377 62.2745 106.07 62.2745 106.07C62.5812 106.07 62.5813 105.764 62.5813 105.764H62.8881C77.3063 97.4864 76.9995 70.2025 76.9995 67.4434V67.1369C76.9995 67.1369 73.9318 67.1369 70.8641 65.9106C70.2505 65.6041 69.9438 65.604 69.3302 65.2975C65.0354 63.1516 60.7407 58.5532 61.9677 49.0498C61.661 49.3563 61.0474 49.6629 59.8203 49.6629C59.5136 49.6629 58.9 49.9694 58.2865 49.9694C54.6052 50.5825 49.0833 49.3563 47.8563 38.3201V38.0136C47.8563 38.0136 47.5495 38.0136 47.2427 38.3201C46.0156 38.9333 43.5614 39.5464 40.8005 38.9333C37.426 38.0136 34.3583 34.9479 34.0516 25.7511C34.0516 25.7511 34.0516 25.7511 34.0516 25.4445C34.0516 25.4445 34.0516 25.4446 34.0516 25.138C34.0516 25.138 33.1313 25.4446 31.9042 25.7511C31.5974 25.7511 31.2906 25.7511 30.9838 25.7511C28.2229 25.4446 24.8485 23.6052 23.6214 15.3281V15.0215C23.6214 15.0215 22.3943 15.9411 20.2469 16.2477C19.6333 16.2477 18.713 16.2477 17.7927 15.9412C17.1792 15.9412 16.5656 15.6346 15.9521 15.3281C15.3386 15.0215 14.4183 14.7149 13.8047 14.1018C13.4979 13.7952 12.8844 13.4887 12.5776 13.4887C12.2708 13.1821 11.6573 12.8755 11.3505 12.569C10.1235 11.6493 8.89635 10.4231 7.3625 8.89025C7.05573 8.58369 7.05574 8.5837 6.74897 8.27714C5.82866 7.35746 5.2151 6.43775 4.29479 5.51806C3.68125 4.90494 3.37448 4.29183 2.76094 3.37214C2.14739 2.75902 1.84062 1.83935 1.22708 1.22623C0.920311 0.919665 0.613533 0.613122 0.306763 0C0.306763 0 0.306778 0.306552 0.613548 0.613113C0.613548 0.919674 0.613548 0.919665 0.613548 1.22623V1.53281C1.84064 5.5181 4.60155 17.4739 1.84061 23.9117C1.53384 25.138 0.613564 26.0577 1.52588e-05 26.6708C0.920334 27.5905 8.58958 36.4807 6.44218 40.1595C5.82864 41.3857 4.60157 41.9989 2.14741 41.9989C3.68126 42.9185 20.5537 54.2613 9.81668 56.7138C9.20313 57.0204 8.58961 57.0203 7.66929 57.0203C7.66929 57.0203 22.701 68.6697 16.2588 74.4943C15.6453 75.1074 14.725 75.7206 13.4979 76.0271H13.8047C15.6453 77.2534 27.3026 85.224 24.2349 91.0486C23.6214 92.2749 22.3943 93.1946 20.5537 94.1143L20.8604 93.8077Z" fill="#C7C7C7"/>
<path fill-rule="evenodd" clip-rule="evenodd" d="M52.7646 90.4351C53.0714 91.3547 53.3782 92.2744 53.685 92.8875C55.8324 95.9531 54.9121 94.1138 52.7646 90.4351Z" fill="#A6A6A6"/>
<path fill-rule="evenodd" clip-rule="evenodd" d="M52.4578 92.5815C52.4578 92.5815 52.4578 92.2749 52.1511 92.2749C52.7646 93.5011 53.0713 93.5011 52.4578 92.5815Z" fill="#A6A6A6"/>
<path fill-rule="evenodd" clip-rule="evenodd" d="M60.4339 108.215C60.1271 107.909 60.1271 107.296 59.8203 106.989C42.3344 76.9463 4.90838 12.5684 2.14745 3.37158L2.45419 3.67816L3.6813 5.82408L3.98804 6.43719L15.3386 25.7506L15.9521 26.9768L18.4063 31.2687L18.713 31.8818L23.6214 40.1589V40.4655L26.9958 45.9836L27.6094 46.9033L31.9042 54.2608L34.3584 58.5526L35.8922 61.3117L42.0276 71.4282L44.4818 75.4135L46.6292 78.7857L46.9359 79.0922L51.8443 87.3694L52.4578 88.289L56.1391 94.4202L60.4339 101.471L60.7406 102.391L62.8881 105.763L63.5016 106.989L60.4339 108.215Z" fill="#A6A6A6"/>
<path fill-rule="evenodd" clip-rule="evenodd" d="M59.2068 104.23C60.1271 104.537 58.5933 102.084 54.2985 99.9383C52.1511 98.712 48.7766 97.4858 45.7089 96.5661C42.6412 95.6465 39.8802 95.3399 38.9599 95.3399C37.4261 95.3399 34.0516 95.0333 36.199 95.3399C36.8125 95.3399 38.3464 95.6464 40.4938 95.953C42.6412 96.5661 45.4021 97.1792 48.163 98.4055C53.3782 100.551 57.9797 103.617 59.2068 104.23Z" fill="#A6A6A6"/>
<path fill-rule="evenodd" clip-rule="evenodd" d="M42.0276 75.1066C42.9479 75.7197 41.7208 72.9606 38.0395 69.895C36.1989 68.3622 33.1312 66.2163 30.3702 64.6834C27.6093 63.1506 25.1552 61.9244 24.5416 61.9244C23.0078 61.3113 20.2468 60.0851 22.0874 61.3113C22.3942 61.6179 23.9281 62.231 26.0755 63.1506C27.9161 64.3769 30.3702 65.6032 32.5176 67.4425C37.1192 70.2016 41.1073 74.1869 42.0276 75.1066Z" fill="#A6A6A6"/>
<path fill-rule="evenodd" clip-rule="evenodd" d="M28.5297 51.8082C29.1432 51.8082 28.2229 50.2753 25.1552 48.436C22.3943 46.5966 15.9521 44.1441 15.0318 44.1441C14.1115 43.8376 11.9641 43.2244 13.1912 43.8375C13.8047 44.4507 17.4859 45.3704 20.8604 47.5163C24.2349 49.3557 27.6094 51.8082 28.5297 51.8082Z" fill="#A6A6A6"/>
<path fill-rule="evenodd" clip-rule="evenodd" d="M19.3266 35.2533C19.9402 35.5599 19.6334 33.7205 17.1793 31.8812C15.9522 30.9615 14.1116 29.7352 12.271 28.8156C10.4303 27.8959 8.89644 27.5893 8.58966 27.5893C7.66935 27.2828 5.82872 26.9762 7.05581 27.5893C7.66935 27.8959 10.7371 29.1221 13.498 30.9615C16.259 32.4943 18.7131 34.9468 19.3266 35.2533Z" fill="#A6A6A6"/>
<path fill-rule="evenodd" clip-rule="evenodd" d="M50.6173 91.0479C51.5376 91.3545 50.0037 89.2086 46.3225 87.3692C42.6412 85.2233 34.972 82.1576 33.7449 81.8511C32.5178 81.5445 30.0636 80.3183 31.5975 81.238C32.211 81.8511 36.8126 83.3839 41.1074 85.8364C45.4022 88.5954 49.697 91.0479 50.6173 91.0479Z" fill="#A6A6A6"/>
<path fill-rule="evenodd" clip-rule="evenodd" d="M18.0995 34.334C18.4062 34.9471 19.0198 33.4143 19.3265 31.2684C19.3265 28.8159 20.2469 24.2175 20.5537 23.6044C20.8604 22.9913 21.4739 21.4584 20.8604 22.3781C20.5536 22.6847 19.0198 25.1372 18.4063 28.2028C17.7927 30.6553 17.7927 33.7209 18.0995 34.334Z" fill="#A6A6A6"/>
<path fill-rule="evenodd" clip-rule="evenodd" d="M26.9958 49.9689C27.3026 50.5821 28.2229 49.0493 28.5297 45.6771C28.8364 42.6115 29.7567 36.1738 30.0635 35.2541C30.3703 34.3344 31.2906 32.495 30.3703 33.4147C29.1432 34.641 26.3823 48.1296 26.9958 49.9689Z" fill="#A6A6A6"/>
<path fill-rule="evenodd" clip-rule="evenodd" d="M41.1073 73.2672C41.414 74.1869 42.3343 71.7344 42.3343 67.4426C42.3343 62.8442 43.2547 54.2604 43.5615 53.0342C43.8682 51.8079 44.7885 49.0489 43.8682 50.5817C43.2547 51.5014 42.0276 56.4064 41.4141 61.6179C40.8005 66.8294 40.8005 72.041 41.1073 73.2672Z" fill="#A6A6A6"/>
<path fill-rule="evenodd" clip-rule="evenodd" d="M51.5376 91.9672C51.8444 93.1934 52.4579 90.1278 52.7647 84.6097C52.7647 81.8507 53.0715 77.8654 53.685 74.4932C54.2985 71.121 54.9121 68.0554 55.2189 67.4423C55.8324 65.9095 57.0595 62.5373 55.8324 64.6833C55.2188 65.6029 52.4579 71.4276 51.8444 77.8654C51.2308 83.9966 51.2308 90.4344 51.5376 91.9672Z" fill="#A6A6A6"/>
<path fill-rule="evenodd" clip-rule="evenodd" d="M60.7406 105.15C61.0474 106.376 61.661 103.31 62.8881 98.099C63.5016 95.3399 64.7287 91.3546 65.9558 87.9824C67.4896 84.6103 68.7167 81.8512 69.3302 81.2381C70.2505 79.7053 72.0912 76.6397 70.5573 78.479C70.2506 79.0921 69.0234 80.625 67.7964 82.7709C66.5693 84.9168 65.0354 87.9824 63.8083 91.048C61.0474 96.8727 60.1271 103.617 60.7406 105.15Z" fill="#A6A6A6"/>
</svg>
