<svg width="416" height="374" viewBox="0 0 416 374" fill="none" xmlns="http://www.w3.org/2000/svg">
<path d="M309.493 233.16L203.053 295.808L96.8491 233.16V232.925C96.8491 232.454 102.736 227.508 111.685 220.443L111.92 220.207C141.356 196.42 203.053 147.668 203.053 147.668C203.053 147.668 264.986 196.42 294.186 220.443C303.37 227.744 309.493 232.689 309.493 233.16Z" fill="#6FADC3"/>
<path d="M246.853 95.6191H132.172C122.282 95.6191 114.275 103.627 114.275 113.518V287.094C114.275 296.986 122.282 304.993 132.172 304.993H276.054C285.944 304.993 293.951 296.986 293.951 287.094V142.487L246.853 95.6191Z" fill="white"/>
<path d="M246.854 124.588C246.854 134.479 254.86 142.487 264.75 142.487H293.715L246.854 95.6191V124.588Z" fill="#BECEDF"/>
<path d="M187.276 125.059H147.714C144.182 125.059 141.356 127.885 141.356 131.418V170.984C141.356 174.517 144.182 177.343 147.714 177.343H187.276C190.808 177.343 193.634 174.517 193.634 170.984V131.418C193.634 127.885 190.808 125.059 187.276 125.059Z" fill="#BECEDF"/>
<path d="M241.673 191.71H146.537C143.711 191.71 141.356 194.065 141.356 196.891C141.356 199.717 143.711 202.073 146.537 202.073H241.673C244.498 202.073 246.853 199.717 246.853 196.891C246.853 194.065 244.498 191.71 241.673 191.71Z" fill="#BECEDF"/>
<path d="M241.673 217.381H146.537C143.711 217.381 141.356 219.736 141.356 222.562C141.356 225.388 143.711 227.744 146.537 227.744H241.673C244.498 227.744 246.853 225.388 246.853 222.562C246.853 219.501 244.498 217.381 241.673 217.381Z" fill="#BECEDF"/>
<path d="M198.579 242.11H146.772C143.946 242.11 141.591 244.466 141.591 247.292C141.591 250.118 143.946 252.473 146.772 252.473H198.579C201.405 252.473 203.76 250.118 203.76 247.292C203.524 244.23 201.405 242.11 198.579 242.11Z" fill="#BECEDF"/>
<path d="M309.493 233.16V335.139C309.493 342.204 303.606 348.092 296.541 348.092H109.801C102.736 348.092 96.8491 342.204 96.8491 335.139V233.16L203.289 295.808L309.493 233.16Z" fill="#98C4D4"/>
<path d="M305.96 344.324L237.434 275.789L203.053 296.043L168.672 275.789L100.146 344.324C102.501 346.915 105.798 348.328 109.565 348.328H296.541C300.309 348.328 303.605 346.68 305.96 344.324Z" fill="#6FADC3"/>
<path d="M330.922 93.0285C300.309 96.0903 275.818 121.291 273.699 151.908C272.521 167.216 276.996 181.347 285.002 192.887C288.064 197.127 288.534 202.779 286.415 207.725L281.47 219.972L302.193 214.555C305.489 213.613 309.022 213.848 312.319 215.262C321.973 219.501 332.57 221.385 344.109 220.207C374.251 217.381 398.506 193.123 401.332 162.977C405.1 122.704 371.425 89.2603 330.922 93.0285Z" fill="#5F80F5"/>
<path d="M339.164 189.12L342.696 185.587C342.696 185.587 339.87 178.993 351.645 167.923C358.709 161.329 360.122 154.97 359.651 149.789C358.709 141.546 351.88 134.716 343.638 133.773C338.457 133.302 332.099 134.716 325.506 141.781C314.438 153.557 307.844 150.731 307.844 150.731L304.312 154.263L339.164 189.12Z" fill="white"/>
<path d="M312.083 167.452C309.257 171.22 309.728 176.637 313.025 179.935C316.322 183.232 321.738 183.703 325.506 180.877L312.083 167.452Z" fill="white"/>
<path d="M362.006 137.777L359.887 139.897C358.238 137.306 355.883 134.951 353.057 133.302L355.177 131.183C357.061 129.298 360.122 129.298 362.006 131.183C363.654 133.067 363.654 135.893 362.006 137.777Z" fill="white"/>
<path d="M335.867 92.7934C358.709 99.6234 375.193 120.584 375.193 145.785C375.193 176.402 350.467 201.131 319.854 201.131C303.841 201.131 289.476 194.301 279.35 183.232C280.999 186.764 282.883 190.062 285.002 193.123C288.063 197.363 288.534 203.015 286.415 207.961L281.47 220.208L302.193 214.791C305.489 213.849 309.022 214.084 312.318 215.497C321.973 219.737 332.57 221.621 344.109 220.443C374.251 217.617 398.506 193.359 401.332 163.213C404.864 124.353 374.016 91.8514 335.867 92.7934Z" fill="#5778EF"/>
</svg>
