<svg width="435" height="316" viewBox="0 0 435 316" fill="none" xmlns="http://www.w3.org/2000/svg">
<path fill-rule="evenodd" clip-rule="evenodd" d="M79.0344 109.17L346.188 87.3974C351.318 86.9793 355.839 90.8188 356.257 95.9491L358.088 118.408C358.506 123.539 354.666 128.059 349.536 128.478L82.3823 150.25C77.252 150.668 72.7311 146.829 72.313 141.698L70.4827 119.239C70.0677 114.147 73.9041 109.588 79.0344 109.17Z" fill="#98C4D4"/>
<path fill-rule="evenodd" clip-rule="evenodd" d="M87.7638 149.16L344.011 128.277L356.006 275.458C356.548 282.108 351.56 288.024 344.871 288.569L112.869 307.476C106.219 308.018 100.304 303.03 99.7588 296.342L87.7638 149.16Z" fill="#98C4D4"/>
<path fill-rule="evenodd" clip-rule="evenodd" d="M215.906 138.718L344.011 128.277L356.006 275.459C356.548 282.109 351.56 288.025 344.871 288.57L241.012 297.034C234.362 297.576 228.446 292.588 227.901 285.899L215.906 138.718Z" fill="#6FADC3"/>
<path fill-rule="evenodd" clip-rule="evenodd" d="M212.611 98.2832L346.188 87.397C351.318 86.9788 355.839 90.8184 356.257 95.9486L358.088 118.408C358.506 123.538 354.666 128.059 349.536 128.477L215.959 139.363C210.829 139.781 206.308 135.942 205.89 130.812L204.059 108.352C203.644 103.26 207.481 98.7013 212.611 98.2832Z" fill="#6FADC3"/>
<path d="M344.067 128.961L87.8196 149.845L88.9872 164.171L345.234 143.288L344.067 128.961Z" fill="#59A0BA"/>
<path d="M344.105 128.958L215.962 139.401L217.13 153.728L345.272 143.285L344.105 128.958Z" fill="#59A0BA"/>
<path fill-rule="evenodd" clip-rule="evenodd" d="M139.122 145.664L164.698 143.58L176.693 290.761C177.235 297.412 183.115 302.441 189.803 301.896L164.228 303.98C157.577 304.522 151.662 299.534 151.117 292.846L139.122 145.664Z" fill="white"/>
<path d="M164.698 143.58L139.122 145.664L140.29 159.991L165.865 157.906L164.698 143.58Z" fill="#D4E2F6"/>
<path fill-rule="evenodd" clip-rule="evenodd" d="M292.802 133.139L267.227 135.223L279.222 282.405C279.764 289.055 274.776 294.97 268.087 295.515L293.663 293.431C300.313 292.889 305.342 287.009 304.797 280.32L292.802 133.139Z" fill="#D4E2F6"/>
<path d="M292.802 133.138L267.227 135.223L268.395 149.549L293.97 147.465L292.802 133.138Z" fill="#B3CBEA"/>
<path fill-rule="evenodd" clip-rule="evenodd" d="M135.771 104.546L161.347 102.462C156.216 102.88 152.377 107.401 152.795 112.531L154.625 134.99C155.043 140.12 159.564 143.96 164.695 143.542L139.119 145.626C133.989 146.044 129.468 142.205 129.05 137.074L127.22 114.615C126.767 109.526 130.641 104.964 135.771 104.546Z" fill="white"/>
<path fill-rule="evenodd" clip-rule="evenodd" d="M289.451 92.0211L263.876 94.1055C269.006 93.6874 273.527 97.5269 273.945 102.657L275.775 125.116C276.194 130.247 272.354 134.767 267.224 135.186L292.799 133.101C297.929 132.683 301.769 128.162 301.351 123.032L299.52 100.573C299.143 95.4775 294.581 91.603 289.451 92.0211Z" fill="#D4E2F6"/>
<path fill-rule="evenodd" clip-rule="evenodd" d="M210.293 98.4722L159.142 102.641C142.002 94.6273 133.167 82.9146 132.554 68.3514C131.106 34.1553 184.565 16.0652 209.073 83.4995L210.293 98.4722Z" fill="white"/>
<path fill-rule="evenodd" clip-rule="evenodd" d="M203.795 99.0017C181.13 87.0391 164.106 75.3052 161.943 63.7757C159.707 51.8313 168.284 44.8968 180.948 52.8927C196.474 62.6829 204.143 83.5569 210.258 98.5132L203.798 99.0397L203.795 99.0017Z" fill="#BECEDF"/>
<path fill-rule="evenodd" clip-rule="evenodd" d="M214.929 98.0946L266.08 93.9259C281.697 83.2426 288.519 70.2539 286.766 55.7837C282.661 21.8423 226.978 12.647 213.712 83.1598L214.929 98.0946Z" fill="white"/>
<path fill-rule="evenodd" clip-rule="evenodd" d="M221.428 97.5644C241.857 82.0897 256.755 67.7542 257.024 56.0265C257.296 43.8777 247.709 38.4236 236.507 48.3645C222.771 60.5395 218.583 82.3797 214.97 98.1289L221.431 97.6024L221.428 97.5644Z" fill="#BECEDF"/>
<path fill-rule="evenodd" clip-rule="evenodd" d="M193.61 99.8317L231.65 96.7315L230.575 83.5449C230.17 78.5666 225.772 74.8318 220.794 75.2375L200.843 76.8635C195.865 77.2692 192.13 81.6668 192.535 86.6451L193.61 99.8317Z" fill="white"/>
<path fill-rule="evenodd" clip-rule="evenodd" d="M395.692 88.8324L395.919 89.273L395.922 89.311C397.36 92.4071 397.446 95.8048 396.468 98.8301C395.427 102.014 393.167 104.799 389.935 106.44L389.494 106.667L389.456 106.67C386.36 108.108 382.965 108.232 379.937 107.216C376.754 106.175 373.968 103.915 372.328 100.683L372.1 100.242L372.097 100.204C370.659 97.108 370.573 93.7103 371.551 90.6851C372.592 87.5016 374.852 84.7162 378.084 83.0756L378.525 82.8484L378.563 82.8453C381.659 81.4071 385.054 81.2835 388.082 82.299C391.265 83.3402 394.089 85.5967 395.692 88.8324ZM391.496 90.8576C390.451 88.8387 388.652 87.4169 386.646 86.7388C384.602 86.0638 382.277 86.1768 380.22 87.2242L380.148 87.2684C378.129 88.3128 376.707 90.1119 376.029 92.1181C375.354 94.1623 375.467 96.4867 376.514 98.5435L376.558 98.6164C377.603 100.635 379.402 102.057 381.408 102.735C383.452 103.41 385.777 103.297 387.833 102.25L387.906 102.206C389.925 101.161 391.35 99.4002 392.025 97.3559C392.7 95.3117 392.587 92.9874 391.54 90.9305L391.496 90.8576Z" fill="#FBFFFC"/>
<path fill-rule="evenodd" clip-rule="evenodd" d="M395.259 221.993C395.37 223.361 394.358 224.553 392.99 224.665C391.622 224.776 390.43 223.764 390.318 222.396L388.77 203.395C388.658 202.027 389.671 200.835 391.039 200.723C392.407 200.612 393.599 201.624 393.71 202.992L395.259 221.993Z" fill="white"/>
<path fill-rule="evenodd" clip-rule="evenodd" d="M401.314 209.449C402.682 209.338 403.873 210.35 403.985 211.718C404.096 213.086 403.084 214.278 401.716 214.39L382.715 215.938C381.347 216.05 380.155 215.037 380.044 213.669C379.932 212.301 380.944 211.109 382.313 210.998L401.314 209.449Z" fill="white"/>
<path fill-rule="evenodd" clip-rule="evenodd" d="M39.0802 113.191C39.1917 114.559 38.1795 115.75 36.8114 115.862C35.4434 115.973 34.2515 114.961 34.14 113.593L32.5914 94.5922C32.48 93.2241 33.4922 92.0323 34.8603 91.9208C36.2283 91.8093 37.4202 92.8215 37.5317 94.1896L39.0802 113.191Z" fill="white"/>
<path fill-rule="evenodd" clip-rule="evenodd" d="M45.135 100.647C46.5031 100.535 47.695 101.547 47.8065 102.915C47.918 104.284 46.9057 105.475 45.5377 105.587L26.5367 107.135C25.1686 107.247 23.9767 106.235 23.8653 104.867C23.7538 103.499 24.766 102.307 26.1341 102.195L45.135 100.647Z" fill="white"/>
<path fill-rule="evenodd" clip-rule="evenodd" d="M65.8892 236.082L66.1164 236.523L66.1194 236.561C67.5577 239.657 67.6433 243.055 66.6657 246.08C65.6245 249.263 63.365 252.049 60.1323 253.689L59.6918 253.916L59.6538 253.92C56.5576 255.358 53.1599 255.443 50.1347 254.466C46.9512 253.425 44.1658 251.165 42.5252 247.932L42.298 247.492L42.2949 247.454C40.8567 244.358 40.7711 240.96 41.7486 237.935C42.7898 234.751 45.0494 231.966 48.282 230.325L48.7226 230.098L48.7606 230.095C51.8567 228.657 55.2544 228.571 58.2797 229.549C61.4631 230.59 64.2486 232.849 65.8892 236.082ZM61.6932 238.107C60.6488 236.088 58.8498 234.667 56.8435 233.989C54.7993 233.314 52.475 233.426 50.4181 234.474L50.3452 234.518C48.3263 235.563 46.9045 237.362 46.2264 239.368C45.5514 241.412 45.6644 243.736 46.7118 245.793L46.756 245.866C47.8004 247.885 49.5995 249.307 51.6057 249.985C53.65 250.66 55.9743 250.547 58.0311 249.5L58.1041 249.455C60.1229 248.411 61.5447 246.612 62.2228 244.606C62.8978 242.561 62.7849 240.237 61.7374 238.18L61.6932 238.107Z" fill="#FBFFFC"/>
<path fill-rule="evenodd" clip-rule="evenodd" d="M17.3107 195.299C19.2108 195.144 20.6039 193.462 20.4521 191.6C20.2972 189.7 18.6153 188.307 16.7532 188.459C14.8531 188.613 13.46 190.295 13.6117 192.157C13.7666 194.058 15.4486 195.451 17.3107 195.299Z" fill="white"/>
<path fill-rule="evenodd" clip-rule="evenodd" d="M36.7734 306.907C38.6735 306.752 40.0666 305.071 39.9149 303.208C39.76 301.308 38.078 299.915 36.216 300.067C34.3159 300.222 32.9228 301.904 33.0745 303.766C33.2263 305.628 34.9113 307.059 36.7734 306.907Z" fill="white"/>
<path fill-rule="evenodd" clip-rule="evenodd" d="M125.757 30.957C127.657 30.8022 129.05 29.1202 128.899 27.2581C128.747 25.396 127.097 23.9238 125.197 24.0787C123.297 24.2335 121.903 25.9155 122.055 27.7776C122.207 29.6397 123.857 31.1119 125.757 30.957Z" fill="white"/>
<path fill-rule="evenodd" clip-rule="evenodd" d="M314.435 40.9044C316.335 40.7495 317.728 39.0676 317.576 37.2055C317.422 35.3054 315.74 33.9123 313.877 34.064C311.977 34.2189 310.584 35.9009 310.736 37.763C310.891 39.663 312.535 41.0592 314.435 40.9044Z" fill="white"/>
<path fill-rule="evenodd" clip-rule="evenodd" d="M421.284 164.403C423.184 164.249 424.577 162.567 424.425 160.704C424.27 158.804 422.588 157.411 420.726 157.563C418.826 157.718 417.433 159.4 417.585 161.262C417.698 163.127 419.383 164.558 421.284 164.403Z" fill="white"/>
<path fill-rule="evenodd" clip-rule="evenodd" d="M405.207 274.586C407.107 274.431 408.5 272.749 408.348 270.887C408.193 268.987 406.511 267.594 404.649 267.746C402.749 267.9 401.356 269.582 401.508 271.445C401.621 273.31 403.307 274.741 405.207 274.586Z" fill="white"/>
</svg>
